<svg xmlns="http://www.w3.org/2000/svg" width="25" height="24" viewBox="0 0 25 24" fill="none">
  <circle cx="12.5" cy="12" r="12" fill="black"/>
  <path fillRule="evenodd" clipRule="evenodd" d="M12.627 6C13.224 6 13.7081 6.54855 13.7081 7.22523V17.027C13.7081 17.7037 13.224 18.2523 12.627 18.2523C12.0299 18.2523 11.5459 17.7037 11.5459 17.027V7.22523C11.5459 6.54855 12.0299 6 12.627 6Z" fill="white"/>
  <path fillRule="evenodd" clipRule="evenodd" d="M6.5 12.126C6.5 11.5289 7.04855 11.0449 7.72523 11.0449H17.527C18.2037 11.0449 18.7523 11.5289 18.7523 12.126C18.7523 12.7231 18.2037 13.2071 17.527 13.2071H7.72523C7.04855 13.2071 6.5 12.7231 6.5 12.126Z" fill="white"/>
</svg>