<svg xmlns="http://www.w3.org/2000/svg" width="25" height="24" viewBox="0 0 25 24" fill="none">
  <path fillRule="evenodd" clipRule="evenodd" d="M4.1 2.4C3.43726 2.4 2.9 2.93726 2.9 3.6V20.4C2.9 21.0627 3.43726 21.6 4.1 21.6H20.9C21.5627 21.6 22.1 21.0627 22.1 20.4V3.6C22.1 2.93726 21.5627 2.4 20.9 2.4H4.1ZM0.5 3.6C0.5 1.61177 2.11177 0 4.1 0H20.9C22.8882 0 24.5 1.61177 24.5 3.6V20.4C24.5 22.3882 22.8882 24 20.9 24H4.1C2.11177 24 0.5 22.3882 0.5 20.4V3.6Z" fill="#767676"/>
  <path fillRule="evenodd" clipRule="evenodd" d="M8.2998 7.20078C7.96843 7.20078 7.6998 7.46941 7.6998 7.80078C7.6998 8.13215 7.96843 8.40078 8.2998 8.40078C8.63118 8.40078 8.8998 8.13215 8.8998 7.80078C8.8998 7.46941 8.63118 7.20078 8.2998 7.20078ZM5.2998 7.80078C5.2998 6.14393 6.64295 4.80078 8.2998 4.80078C9.95666 4.80078 11.2998 6.14393 11.2998 7.80078C11.2998 9.45764 9.95666 10.8008 8.2998 10.8008C6.64295 10.8008 5.2998 9.45764 5.2998 7.80078Z" fill="#767676"/>
  <path fillRule="evenodd" clipRule="evenodd" d="M16.4519 8.75186C16.9205 8.28323 17.6803 8.28323 18.1489 8.75186L24.1489 14.7519C24.6175 15.2205 24.6175 15.9803 24.1489 16.4489C23.6803 16.9175 22.9205 16.9175 22.4519 16.4489L17.3004 11.2974L4.94892 23.6489C4.48029 24.1175 3.72049 24.1175 3.25186 23.6489C2.78323 23.1803 2.78323 22.4205 3.25186 21.9519L16.4519 8.75186Z" fill="#767676"/>
</svg>