<svg xmlns="http://www.w3.org/2000/svg" width="25" height="24" viewBox="0 0 25 24" fill="none">
  <path fillRule="evenodd" clipRule="evenodd" d="M24.5 11.9992C24.5 12.662 23.9627 13.1992 23.3 13.1992L1.7 13.1992C1.03726 13.1992 0.5 12.662 0.5 11.9992C0.5 11.3365 1.03726 10.7992 1.7 10.7992L23.3 10.7992C23.9627 10.7992 24.5 11.3365 24.5 11.9992Z" fill="#505050"/>
  <path fillRule="evenodd" clipRule="evenodd" d="M13.3487 23.6485C12.8801 24.1172 12.1203 24.1172 11.6517 23.6485L0.851669 12.8485C0.38304 12.3799 0.383041 11.6201 0.851669 11.1515L11.6517 0.351473C12.1203 -0.117159 12.8801 -0.117159 13.3487 0.351473C13.8174 0.820101 13.8174 1.5799 13.3487 2.04853L3.39725 12L13.3487 21.9515C13.8174 22.4201 13.8174 23.1799 13.3487 23.6485Z" fill="#505050"/>
</svg>