<svg xmlns="http://www.w3.org/2000/svg" width="25" height="20" viewBox="0 0 25 20" fill="none">
  <path fill-rule="evenodd" clip-rule="evenodd" d="M8.71097 0.411046C8.88217 0.154247 9.17039 0 9.47902 0H15.521C15.8296 0 16.1178 0.154247 16.289 0.411046L18.029 3.02098H21.5629C22.3419 3.02098 23.0889 3.33042 23.6398 3.88122C24.1906 4.43203 24.5 5.17908 24.5 5.95804V17.035C24.5 17.8139 24.1906 18.561 23.6398 19.1118C23.0889 19.6626 22.3419 19.972 21.5629 19.972H3.43706C2.6581 19.972 1.91105 19.6626 1.36025 19.1118C0.80944 18.561 0.5 17.8139 0.5 17.035V5.95804C0.5 5.17908 0.80944 4.43203 1.36025 3.88122C1.91105 3.33042 2.65811 3.02098 3.43706 3.02098H6.97102L8.71097 0.411046ZM9.97304 1.84615L8.23308 4.45609C8.06188 4.71289 7.77367 4.86713 7.46504 4.86713H3.43706C3.14774 4.86713 2.87026 4.98207 2.66567 5.18665C2.46109 5.39124 2.34615 5.66872 2.34615 5.95804V17.035C2.34615 17.3243 2.46109 17.6018 2.66567 17.8064C2.87026 18.0109 3.14774 18.1259 3.43706 18.1259H21.5629C21.8523 18.1259 22.1297 18.0109 22.3343 17.8064C22.5389 17.6018 22.6538 17.3243 22.6538 17.035V5.95804C22.6538 5.66872 22.5389 5.39124 22.3343 5.18665C22.1297 4.98207 21.8523 4.86713 21.5629 4.86713H17.535C17.2263 4.86713 16.9381 4.71289 16.7669 4.45609L15.027 1.84615H9.97304Z" fill="#767676"/>
  <path fill-rule="evenodd" clip-rule="evenodd" d="M12.5018 7.88717C10.787 7.88717 9.39694 9.27728 9.39694 10.9921C9.39694 12.7069 10.787 14.097 12.5018 14.097C14.2166 14.097 15.6067 12.7069 15.6067 10.9921C15.6067 9.27728 14.2166 7.88717 12.5018 7.88717ZM7.55078 10.9921C7.55078 8.25767 9.76744 6.04102 12.5018 6.04102C15.2362 6.04102 17.4529 8.25767 17.4529 10.9921C17.4529 13.7265 15.2362 15.9431 12.5018 15.9431C9.76744 15.9431 7.55078 13.7265 7.55078 10.9921Z" fill="#767676"/>
</svg>