<svg width="18" height="19" viewBox="0 0 18 19" fill="none" xmlns="http://www.w3.org/2000/svg">
<g id="icon">
<path id="Vector (Stroke)" fill-rule="evenodd" clip-rule="evenodd" d="M11.9101 7.33368C12.03 7.44526 12.03 7.62617 11.9101 7.73774L7.69139 11.6663C7.57157 11.7779 7.3773 11.7779 7.25748 11.6663L5.33986 9.8806C5.22005 9.76902 5.22005 9.58812 5.33986 9.47654C5.45968 9.36496 5.65395 9.36496 5.77377 9.47654L7.47443 11.0602L11.4762 7.33368C11.596 7.22211 11.7903 7.22211 11.9101 7.33368Z" fill="white" stroke="white" stroke-width="0.8" stroke-linecap="round" stroke-linejoin="round"/>
<path id="Vector" d="M8.625 17.75C8.625 17.75 15.75 14.45 15.75 9.5V3.725L8.625 1.25L1.5 3.725V9.5C1.5 14.45 8.625 17.75 8.625 17.75Z" stroke="white" stroke-width="1.8" stroke-linecap="round" stroke-linejoin="round"/>
</g>
</svg>
