<svg width="18" height="18" viewBox="0 0 18 18" fill="none" xmlns="http://www.w3.org/2000/svg">
<path d="M14.1919 2H3.80807C2.8095 2 2 2.8095 2 3.80807V14.1919C2 15.1905 2.8095 16 3.80807 16H14.1919C15.1905 16 16 15.1905 16 14.1919V3.80807C16 2.8095 15.1905 2 14.1919 2Z" fill="url(#paint0_linear_1906_788)"/>
<path d="M14.1919 2H3.80807C2.8095 2 2 2.8095 2 3.80807V14.1919C2 15.1905 2.8095 16 3.80807 16H14.1919C15.1905 16 16 15.1905 16 14.1919V3.80807C16 2.8095 15.1905 2 14.1919 2Z" fill="url(#paint1_radial_1906_788)"/>
<path d="M15.1523 3.25488V14.7437" stroke="url(#paint2_linear_1906_788)" stroke-width="0.855891" stroke-linecap="round"/>
<path d="M3.73926 2.91028H14.6787" stroke="url(#paint3_linear_1906_788)" stroke-width="0.855891" stroke-linecap="round"/>
<path d="M7.82472 12.5148C7.63227 12.5148 7.43986 12.4428 7.29285 12.2984L4.40776 9.46507C4.11408 9.17663 4.11408 8.7088 4.40776 8.42036C4.70144 8.13197 5.17785 8.13197 5.47153 8.42036L7.82472 10.7314L12.9483 5.69971C13.242 5.4113 13.7184 5.4113 14.0121 5.69971C14.3058 5.9881 14.3058 6.45599 14.0121 6.74438L8.3566 12.2984C8.20994 12.4428 8.01718 12.5148 7.82472 12.5148Z" fill="#53BB7D"/>
<path d="M7.82472 12.5148C7.63227 12.5148 7.43986 12.4428 7.29285 12.2984L4.40776 9.46507C4.11408 9.17663 4.11408 8.7088 4.40776 8.42036C4.70144 8.13197 5.17785 8.13197 5.47153 8.42036L7.78957 10.6968C7.80911 10.716 7.8404 10.716 7.85993 10.6968L12.9483 5.69971C13.242 5.4113 13.7184 5.4113 14.0121 5.69971C14.3058 5.9881 14.3058 6.45599 14.0121 6.74438L8.3566 12.2984C8.20994 12.4428 8.01718 12.5148 7.82472 12.5148Z" fill="#FCF2FF"/>
<defs>
<linearGradient id="paint0_linear_1906_788" x1="8.99999" y1="3.79527" x2="8.99999" y2="20.4962" gradientUnits="userSpaceOnUse">
<stop stop-color="#5AD98F"/>
<stop offset="1" stop-color="#51C685"/>
</linearGradient>
<radialGradient id="paint1_radial_1906_788" cx="0" cy="0" r="1" gradientUnits="userSpaceOnUse" gradientTransform="translate(14.8857 3.05157) rotate(136.771) scale(1.07703 1.25795)">
<stop stop-color="#80FFB3"/>
<stop offset="1" stop-color="#80FFB3" stop-opacity="0"/>
</radialGradient>
<linearGradient id="paint2_linear_1906_788" x1="-nan" y1="-nan" x2="-nan" y2="-nan" gradientUnits="userSpaceOnUse">
<stop stop-color="#74FCA8"/>
<stop offset="1" stop-color="#61DB90"/>
</linearGradient>
<linearGradient id="paint3_linear_1906_788" x1="-nan" y1="-nan" x2="-nan" y2="-nan" gradientUnits="userSpaceOnUse">
<stop stop-color="#66F39D"/>
<stop offset="1" stop-color="#60E496"/>
</linearGradient>
</defs>
</svg>
