<svg xmlns="http://www.w3.org/2000/svg" width="25" height="24" viewBox="0 0 25 24" fill="none">
  <path fillRule="evenodd" clipRule="evenodd" d="M10.071 16.8024L12.5 20.711L14.929 16.8024L15.9781 16.7788C19.5926 16.6976 22.5 13.56 22.5 9.702C22.5 5.79268 19.5152 2.62354 15.8333 2.62354H9.16667C5.48477 2.62354 2.5 5.79268 2.5 9.702C2.5 13.56 5.40736 16.6976 9.02195 16.7788L10.071 16.8024ZM0.5 9.702C0.5 4.61988 4.3802 0.5 9.16667 0.5H15.8333C20.6198 0.5 24.5 4.61988 24.5 9.702C24.5 14.7178 20.7205 18.7962 16.0204 18.9019L13.0564 23.6714C12.793 24.0954 12.207 24.0954 11.9435 23.6714L8.97961 18.9019C4.27951 18.7962 0.5 14.7178 0.5 9.702Z" fill="#A8A8A8"/>
</svg>