<svg xmlns="http://www.w3.org/2000/svg" width="22" height="24" viewBox="0 0 22 24" fill="none">
  <path fillRule="evenodd" clipRule="evenodd" d="M0 5.45419C0 4.8517 0.488417 4.36328 1.09091 4.36328H20.7273C21.3298 4.36328 21.8182 4.8517 21.8182 5.45419C21.8182 6.05668 21.3298 6.5451 20.7273 6.5451H1.09091C0.488417 6.5451 0 6.05668 0 5.45419Z" fill="#A8A8A8"/>
  <path fillRule="evenodd" clipRule="evenodd" d="M8.7271 2.18182C8.43777 2.18182 8.16029 2.29675 7.95571 2.50134C7.75112 2.70592 7.63619 2.9834 7.63619 3.27273V5.45455C7.63619 6.05704 7.14777 6.54545 6.54528 6.54545C5.94278 6.54545 5.45437 6.05704 5.45437 5.45455V3.27273C5.45437 2.40475 5.79917 1.57231 6.41293 0.95856C7.02668 0.344804 7.85911 0 8.7271 0H13.0907C13.9587 0 14.7911 0.344804 15.4049 0.95856C16.0187 1.57231 16.3635 2.40475 16.3635 3.27273V5.45455C16.3635 6.05704 15.875 6.54545 15.2726 6.54545C14.6701 6.54545 14.1816 6.05704 14.1816 5.45455V3.27273C14.1816 2.9834 14.0667 2.70592 13.8621 2.50134C13.6575 2.29675 13.3801 2.18182 13.0907 2.18182H8.7271ZM3.27255 4.36364C3.87504 4.36364 4.36346 4.85205 4.36346 5.45455V20.7273C4.36346 21.0166 4.47839 21.2941 4.68298 21.4987C4.88756 21.7032 5.16504 21.8182 5.45437 21.8182H16.3635C16.6528 21.8182 16.9303 21.7032 17.1348 21.4987C17.3394 21.2941 17.4544 21.0166 17.4544 20.7273V5.45455C17.4544 4.85205 17.9428 4.36364 18.5453 4.36364C19.1478 4.36364 19.6362 4.85205 19.6362 5.45455V20.7273C19.6362 21.5953 19.2914 22.4277 18.6776 23.0414C18.0639 23.6552 17.2314 24 16.3635 24H5.45437C4.58639 24 3.75396 23.6552 3.1402 23.0414C2.52644 22.4277 2.18164 21.5953 2.18164 20.7273V5.45455C2.18164 4.85205 2.67006 4.36364 3.27255 4.36364Z" fill="#A8A8A8"/>
  <path fillRule="evenodd" clipRule="evenodd" d="M8.72763 9.81836C9.33012 9.81836 9.81854 10.3068 9.81854 10.9093V17.4547C9.81854 18.0572 9.33012 18.5456 8.72763 18.5456C8.12514 18.5456 7.63672 18.0572 7.63672 17.4547V10.9093C7.63672 10.3068 8.12514 9.81836 8.72763 9.81836Z" fill="#A8A8A8"/>
  <path fillRule="evenodd" clipRule="evenodd" d="M13.0909 9.81836C13.6934 9.81836 14.1818 10.3068 14.1818 10.9093V17.4547C14.1818 18.0572 13.6934 18.5456 13.0909 18.5456C12.4884 18.5456 12 18.0572 12 17.4547V10.9093C12 10.3068 12.4884 9.81836 13.0909 9.81836Z" fill="#A8A8A8"/>
</svg>