<svg xmlns="http://www.w3.org/2000/svg" width="13" height="12" viewBox="0 0 13 12" fill="none">
  <path fillRule="evenodd" clipRule="evenodd" d="M0.183058 11.5669C-0.0610194 11.3229 -0.0610193 10.9271 0.183058 10.6831L4.74112 6.125L0.18306 1.56694C-0.0610181 1.32286 -0.061018 0.927136 0.18306 0.683059C0.427137 0.438981 0.822865 0.438981 1.06694 0.683059L6.06694 5.68306C6.31102 5.92714 6.31102 6.32287 6.06694 6.56694L1.06694 11.5669C0.822864 11.811 0.427136 11.811 0.183058 11.5669Z" fill="#767676"/>
  <path fillRule="evenodd" clipRule="evenodd" d="M6.43306 11.5669C6.18898 11.3229 6.18898 10.9271 6.43306 10.6831L10.9911 6.125L6.43306 1.56694C6.18898 1.32286 6.18898 0.927136 6.43306 0.683059C6.67714 0.438981 7.07287 0.438981 7.31694 0.683059L12.3169 5.68306C12.561 5.92714 12.561 6.32287 12.3169 6.56694L7.31694 11.5669C7.07286 11.811 6.67714 11.811 6.43306 11.5669Z" fill="#767676"/>
</svg>