<svg xmlns="http://www.w3.org/2000/svg" width="13" height="12" viewBox="0 0 13 12" fill="none">
  <path fillRule="evenodd" clipRule="evenodd" d="M12.3169 0.683058C12.561 0.927136 12.561 1.32286 12.3169 1.56694L7.75888 6.125L12.3169 10.6831C12.561 10.9271 12.561 11.3229 12.3169 11.5669C12.0729 11.811 11.6771 11.811 11.4331 11.5669L6.43306 6.56694C6.18898 6.32286 6.18898 5.92714 6.43306 5.68306L11.4331 0.683058C11.6771 0.438981 12.0729 0.438981 12.3169 0.683058Z" fill="#767676"/>
  <path fillRule="evenodd" clipRule="evenodd" d="M6.06694 0.683058C6.31102 0.927136 6.31102 1.32286 6.06694 1.56694L1.50888 6.125L6.06694 10.6831C6.31102 10.9271 6.31102 11.3229 6.06694 11.5669C5.82286 11.811 5.42714 11.811 5.18306 11.5669L0.183058 6.56694C-0.0610192 6.32286 -0.0610192 5.92714 0.183059 5.68306L5.18306 0.683058C5.42714 0.438981 5.82286 0.438981 6.06694 0.683058Z" fill="#767676"/>
</svg>