<svg width="18" height="18" viewBox="0 0 18 18" fill="none" xmlns="http://www.w3.org/2000/svg">
<g id="icon">
<path id="Vector (Stroke)" fill-rule="evenodd" clip-rule="evenodd" d="M9.375 10.5C8.54657 10.5 7.875 9.82843 7.875 9C7.875 8.17157 8.54657 7.5 9.375 7.5C10.2034 7.5 10.875 8.17157 10.875 9C10.875 9.82843 10.2034 10.5 9.375 10.5Z" fill="#A0A5BB"/>
<path id="Vector (Stroke)_2" fill-rule="evenodd" clip-rule="evenodd" d="M4.125 10.5C3.29657 10.5 2.625 9.82843 2.625 9C2.625 8.17157 3.29657 7.5 4.125 7.5C4.95343 7.5 5.625 8.17157 5.625 9C5.625 9.82843 4.95343 10.5 4.125 10.5Z" fill="#A0A5BB"/>
<path id="Vector (Stroke)_3" fill-rule="evenodd" clip-rule="evenodd" d="M14.625 10.5C13.7966 10.5 13.125 9.82843 13.125 9C13.125 8.17157 13.7966 7.5 14.625 7.5C15.4534 7.5 16.125 8.17157 16.125 9C16.125 9.82843 15.4534 10.5 14.625 10.5Z" fill="#A0A5BB"/>
</g>
</svg>
