<svg xmlns="http://www.w3.org/2000/svg" width="25" height="24" viewBox="0 0 25 24" fill="none">
  <path fillRule="evenodd" clipRule="evenodd" d="M11.1113 22.6097C11.1113 21.8426 11.7332 21.2207 12.5004 21.2207L23.111 21.2207C23.8781 21.2207 24.5 21.8426 24.5 22.6097C24.5 23.3769 23.8781 23.9988 23.111 23.9988L12.5004 23.9988C11.7332 23.9988 11.1113 23.3769 11.1113 22.6097Z" fill="#A8A8A8"/>
  <path fillRule="evenodd" clipRule="evenodd" d="M19.5735 2.77806C19.3016 2.77806 19.026 2.89094 18.8115 3.11646L4.33269 18.3383L3.7763 20.6781L5.87031 20.1277L20.3355 4.92021C20.4422 4.80795 20.5304 4.67094 20.5917 4.51535C20.653 4.35967 20.6854 4.19059 20.6854 4.01833C20.6854 3.84608 20.653 3.677 20.5917 3.52132C20.5304 3.36572 20.4422 3.22872 20.3355 3.11646C20.2288 3.00434 20.106 2.91932 19.976 2.86269C19.8461 2.80614 19.7096 2.77806 19.5735 2.77806ZM16.7986 1.20182C17.5221 0.441147 18.5187 0 19.5735 0C20.0942 0 20.6081 0.107934 21.0851 0.315657C21.5619 0.523297 21.9905 0.825626 22.3484 1.20182C22.706 1.57786 22.9863 2.02056 23.1764 2.50297C23.3664 2.98529 23.4635 3.50002 23.4635 4.01833C23.4635 4.53665 23.3664 5.05137 23.1764 5.5337C22.9863 6.01611 22.706 6.45881 22.3484 6.83485L7.61135 22.3282C7.43363 22.515 7.20739 22.6487 6.95799 22.7143L2.24215 23.9537C1.77013 24.0778 1.26764 23.945 0.918504 23.604C0.569365 23.263 0.424805 22.7638 0.537712 22.289L1.71667 17.3311C1.77344 17.0924 1.89245 16.8729 2.06157 16.6951L16.7986 1.20182Z" fill="#A8A8A8"/>
</svg>