<svg xmlns="http://www.w3.org/2000/svg" width="25" height="24" viewBox="0 0 25 24" fill="none">
  <path fill-rule="evenodd" clip-rule="evenodd" d="M12.5 2.18182C7.07757 2.18182 2.68182 6.57757 2.68182 12C2.68182 17.4224 7.07757 21.8182 12.5 21.8182C17.9224 21.8182 22.3182 17.4224 22.3182 12C22.3182 6.57757 17.9224 2.18182 12.5 2.18182ZM0.5 12C0.5 5.37258 5.87258 0 12.5 0C19.1274 0 24.5 5.37258 24.5 12C24.5 18.6274 19.1274 24 12.5 24C5.87258 24 0.5 18.6274 0.5 12Z" fill="#A8A8A8"/>
  <path fill-rule="evenodd" clip-rule="evenodd" d="M9.11823 13.8195C8.76745 13.3988 8.10826 13.3144 7.64316 13.6315C7.1766 13.9496 7.08204 14.5513 7.43196 14.9755L8.27675 14.3995C7.43196 14.9755 7.43222 14.9758 7.43248 14.9761L7.43303 14.9768L7.43425 14.9782L7.43714 14.9817L7.44475 14.9908L7.46724 15.0169C7.48545 15.0378 7.51011 15.0656 7.54111 15.0991C7.60304 15.1662 7.69068 15.2571 7.80309 15.3637C8.02704 15.5762 8.3543 15.856 8.77764 16.1359C9.62025 16.693 10.8898 17.2795 12.5007 17.2795C14.1116 17.2795 15.3812 16.693 16.2238 16.1359C16.6471 15.856 16.9744 15.5762 17.1983 15.3637C17.3107 15.2571 17.3984 15.1662 17.4603 15.0991C17.4913 15.0656 17.516 15.0378 17.5342 15.0169L17.5567 14.9908L17.5643 14.9817L17.5672 14.9782L17.5684 14.9768L17.5689 14.9761C17.5692 14.9758 17.5694 14.9755 16.7247 14.3995L17.5694 14.9755C17.9194 14.5513 17.8248 13.9496 17.3582 13.6315C16.8932 13.3144 16.234 13.3988 15.8832 13.8195L15.8783 13.8252C15.872 13.8324 15.86 13.8459 15.8426 13.8648C15.8076 13.9028 15.7508 13.9619 15.6735 14.0353C15.518 14.1828 15.2842 14.383 14.9816 14.5831C14.3722 14.986 13.5297 15.3595 12.5007 15.3595C11.4717 15.3595 10.6292 14.986 10.0198 14.5831C9.71719 14.383 9.48346 14.1828 9.32791 14.0353C9.25057 13.9619 9.19384 13.9028 9.15883 13.8648C9.14136 13.8459 9.12941 13.8324 9.12313 13.8252L9.11823 13.8195Z" fill="#A8A8A8"/>
  <path fill-rule="evenodd" clip-rule="evenodd" d="M8.17969 8.63969C8.17969 8.10949 8.60736 7.67969 9.13491 7.67969H9.14446C9.67202 7.67969 10.0997 8.10949 10.0997 8.63969C10.0997 9.16988 9.67202 9.59969 9.14446 9.59969H9.13491C8.60736 9.59969 8.17969 9.16988 8.17969 8.63969Z" fill="#A8A8A8"/>
  <path fill-rule="evenodd" clip-rule="evenodd" d="M14.9004 8.63969C14.9004 8.10949 15.3281 7.67969 15.8556 7.67969H15.8652C16.3927 7.67969 16.8204 8.10949 16.8204 8.63969C16.8204 9.16988 16.3927 9.59969 15.8652 9.59969H15.8556C15.3281 9.59969 14.9004 9.16988 14.9004 8.63969Z" fill="#A8A8A8"/>
</svg>