<svg xmlns="http://www.w3.org/2000/svg" width="25" height="24" viewBox="0 0 25 24" fill="none">
  <g clip-path="url(#clip0_219_6429)">
    <path fill-rule="evenodd" clip-rule="evenodd" d="M2.64074 12C2.75003 12.1889 2.89492 12.4296 3.07441 12.7075C3.53543 13.4213 4.21817 14.3706 5.10454 15.3161C6.89552 17.2264 9.39951 19 12.5 19C15.6005 19 18.1045 17.2264 19.8955 15.3161C20.7818 14.3706 21.4646 13.4213 21.9256 12.7075C22.1051 12.4296 22.25 12.1889 22.3593 12C22.25 11.8111 22.1051 11.5704 21.9256 11.2925C21.4646 10.5787 20.7818 9.6294 19.8955 8.68394C18.1045 6.77356 15.6005 5 12.5 5C9.39951 5 6.89552 6.77356 5.10454 8.68394C4.21817 9.6294 3.53543 10.5787 3.07441 11.2925C2.89492 11.5704 2.75003 11.8111 2.64074 12ZM23.5 12C24.3944 11.5528 24.3943 11.5525 24.3941 11.5521L24.3936 11.5512L24.3925 11.5489L24.389 11.542L24.3777 11.5198C24.3681 11.5013 24.3546 11.4753 24.3372 11.4424C24.3025 11.3767 24.252 11.2832 24.186 11.166C24.0542 10.9316 23.8602 10.6015 23.6057 10.2075C23.0979 9.42131 22.3432 8.3706 21.3545 7.31606C19.3955 5.22644 16.3995 3 12.5 3C8.60049 3 5.60448 5.22644 3.64546 7.31606C2.65683 8.3706 1.90207 9.42131 1.39434 10.2075C1.13985 10.6015 0.945792 10.9316 0.813971 11.166C0.748023 11.2832 0.69754 11.3767 0.662753 11.4424C0.645357 11.4753 0.631875 11.5013 0.622338 11.5198L0.61099 11.542L0.607539 11.5489L0.60637 11.5512L0.605925 11.5521C0.605741 11.5525 0.605573 11.5528 1.5 12L0.605573 11.5528C0.464809 11.8343 0.464809 12.1657 0.605573 12.4472L1.5 12C0.605573 12.4472 0.605741 12.4476 0.605925 12.4479L0.60637 12.4488L0.607539 12.4511L0.61099 12.458L0.622338 12.4802C0.631875 12.4987 0.645357 12.5247 0.662753 12.5576C0.69754 12.6233 0.748023 12.7168 0.813971 12.834C0.945792 13.0684 1.13985 13.3985 1.39434 13.7925C1.90207 14.5787 2.65683 15.6294 3.64546 16.6839C5.60448 18.7736 8.60049 21 12.5 21C16.3995 21 19.3955 18.7736 21.3545 16.6839C22.3432 15.6294 23.0979 14.5787 23.6057 13.7925C23.8602 13.3985 24.0542 13.0684 24.186 12.834C24.252 12.7168 24.3025 12.6233 24.3372 12.5576C24.3546 12.5247 24.3681 12.4987 24.3777 12.4802L24.389 12.458L24.3925 12.4511L24.3936 12.4488L24.3941 12.4479C24.3943 12.4476 24.3944 12.4472 23.5 12ZM23.5 12L24.3944 12.4472C24.5352 12.1657 24.5352 11.8343 24.3944 11.5528L23.5 12Z" fill="#A8A8A8"/>
    <path fill-rule="evenodd" clip-rule="evenodd" d="M12.5 10C11.3954 10 10.5 10.8954 10.5 12C10.5 13.1046 11.3954 14 12.5 14C13.6046 14 14.5 13.1046 14.5 12C14.5 10.8954 13.6046 10 12.5 10ZM8.5 12C8.5 9.79086 10.2909 8 12.5 8C14.7091 8 16.5 9.79086 16.5 12C16.5 14.2091 14.7091 16 12.5 16C10.2909 16 8.5 14.2091 8.5 12Z" fill="#A8A8A8"/>
  </g>
  <defs>
    <clipPath id="clip0_219_6429">
      <rect width="24" height="24" fill="white" transform="translate(0.5)"/>
    </clipPath>
  </defs>
</svg>