<svg xmlns="http://www.w3.org/2000/svg" width="25" height="24" viewBox="0 0 25 24" fill="none">
  <g clip-path="url(#clip0_351_13007)">
    <path fill-rule="evenodd" clip-rule="evenodd" d="M1.96447 15.4645C2.90215 14.5268 4.17392 14 5.5 14H12.5C13.8261 14 15.0979 14.5268 16.0355 15.4645C16.9732 16.4021 17.5 17.6739 17.5 19V21C17.5 21.5523 17.0523 22 16.5 22C15.9477 22 15.5 21.5523 15.5 21V19C15.5 18.2044 15.1839 17.4413 14.6213 16.8787C14.0587 16.3161 13.2956 16 12.5 16H5.5C4.70435 16 3.94129 16.3161 3.37868 16.8787C2.81607 17.4413 2.5 18.2044 2.5 19V21C2.5 21.5523 2.05228 22 1.5 22C0.947715 22 0.5 21.5523 0.5 21V19C0.5 17.6739 1.02678 16.4021 1.96447 15.4645Z" fill="#505050"/>
    <path fill-rule="evenodd" clip-rule="evenodd" d="M9 4C7.34315 4 6 5.34315 6 7C6 8.65685 7.34315 10 9 10C10.6569 10 12 8.65685 12 7C12 5.34315 10.6569 4 9 4ZM4 7C4 4.23858 6.23858 2 9 2C11.7614 2 14 4.23858 14 7C14 9.76142 11.7614 12 9 12C6.23858 12 4 9.76142 4 7Z" fill="#505050"/>
    <path fill-rule="evenodd" clip-rule="evenodd" d="M24.2071 8.29289C24.5976 8.68342 24.5976 9.31658 24.2071 9.70711L20.2071 13.7071C19.8166 14.0976 19.1834 14.0976 18.7929 13.7071L16.7929 11.7071C16.4024 11.3166 16.4024 10.6834 16.7929 10.2929C17.1834 9.90237 17.8166 9.90237 18.2071 10.2929L19.5 11.5858L22.7929 8.29289C23.1834 7.90237 23.8166 7.90237 24.2071 8.29289Z" fill="#505050"/>
  </g>
  <defs>
    <clipPath id="clip0_351_13007">
      <rect width="24" height="24" fill="white" transform="translate(0.5)"/>
    </clipPath>
  </defs>
</svg>