<svg xmlns="http://www.w3.org/2000/svg" width="22" height="24" viewBox="0 0 22 24" fill="none">
  <path fill-rule="evenodd" clip-rule="evenodd" d="M2.23566 16.0348C3.34699 14.892 4.85427 14.25 6.42593 14.25H15.9074C17.4791 14.25 18.9863 14.892 20.0977 16.0348C21.209 17.1776 21.8333 18.7276 21.8333 20.3438V22.7812C21.8333 23.4543 21.3027 24 20.6481 24C19.9936 24 19.463 23.4543 19.463 22.7812V20.3438C19.463 19.3741 19.0884 18.4441 18.4216 17.7584C17.7548 17.0727 16.8504 16.6875 15.9074 16.6875H6.42593C5.48293 16.6875 4.57856 17.0727 3.91177 17.7584C3.24497 18.4441 2.87037 19.3741 2.87037 20.3438V22.7812C2.87037 23.4543 2.33974 24 1.68519 24C1.03063 24 0.5 23.4543 0.5 22.7812V20.3438C0.5 18.7276 1.12434 17.1776 2.23566 16.0348Z" fill="#363636"/>
  <path fill-rule="evenodd" clip-rule="evenodd" d="M11.1664 2.4C9.09443 2.4 7.41472 4.01178 7.41472 6C7.41472 7.98823 9.09443 9.6 11.1664 9.6C13.2385 9.6 14.9182 7.98823 14.9182 6C14.9182 4.01178 13.2385 2.4 11.1664 2.4ZM4.91357 6C4.91357 2.68629 7.71308 0 11.1664 0C14.6198 0 17.4193 2.68629 17.4193 6C17.4193 9.31371 14.6198 12 11.1664 12C7.71308 12 4.91357 9.31371 4.91357 6Z" fill="#363636"/>
</svg>