<svg width="18" height="18" viewBox="0 0 18 18" fill="none" xmlns="http://www.w3.org/2000/svg">
<path d="M8.45917 14.9875C8.72416 15.1354 9.043 15.1272 9.30641 14.9766C11.0812 13.9624 14.1652 11.6275 15.3764 8.59456C17.1542 4.64566 12.98 1.4934 10.0951 3.76062C9.79416 3.99712 9.41578 4.26779 9.15539 4.5242C9.03765 4.64013 8.83016 4.65195 8.70797 4.54075C8.3656 4.22927 7.83055 3.82972 7.48695 3.59724C5.02751 1.93327 0.552479 4.12667 2.46137 8.80789C3.16064 10.9091 6.49294 13.8902 8.45917 14.9875Z" fill="url(#paint0_radial_1906_720)"/>
<path d="M8.45917 14.9875C8.72416 15.1354 9.043 15.1272 9.30641 14.9766C11.0812 13.9624 14.1652 11.6275 15.3764 8.59456C17.1542 4.64566 12.98 1.4934 10.0951 3.76062C9.79416 3.99712 9.41578 4.26779 9.15539 4.5242C9.03765 4.64013 8.83016 4.65195 8.70797 4.54075C8.3656 4.22927 7.83055 3.82972 7.48695 3.59724C5.02751 1.93327 0.552479 4.12667 2.46137 8.80789C3.16064 10.9091 6.49294 13.8902 8.45917 14.9875Z" fill="url(#paint1_radial_1906_720)"/>
<path d="M8.45917 14.9875C8.72416 15.1354 9.043 15.1272 9.30641 14.9766C11.0812 13.9624 14.1652 11.6275 15.3764 8.59456C17.1542 4.64566 12.98 1.4934 10.0951 3.76062C9.79416 3.99712 9.41578 4.26779 9.15539 4.5242C9.03765 4.64013 8.83016 4.65195 8.70797 4.54075C8.3656 4.22927 7.83055 3.82972 7.48695 3.59724C5.02751 1.93327 0.552479 4.12667 2.46137 8.80789C3.16064 10.9091 6.49294 13.8902 8.45917 14.9875Z" fill="url(#paint2_radial_1906_720)"/>
<path d="M8.45917 14.9875C8.72416 15.1354 9.043 15.1272 9.30641 14.9766C11.0812 13.9624 14.1652 11.6275 15.3764 8.59456C17.1542 4.64566 12.98 1.4934 10.0951 3.76062C9.79416 3.99712 9.41578 4.26779 9.15539 4.5242C9.03765 4.64013 8.83016 4.65195 8.70797 4.54075C8.3656 4.22927 7.83055 3.82972 7.48695 3.59724C5.02751 1.93327 0.552479 4.12667 2.46137 8.80789C3.16064 10.9091 6.49294 13.8902 8.45917 14.9875Z" fill="url(#paint3_radial_1906_720)"/>
<path d="M8.45917 14.9875C8.72416 15.1354 9.043 15.1272 9.30641 14.9766C11.0812 13.9624 14.1652 11.6275 15.3764 8.59456C17.1542 4.64566 12.98 1.4934 10.0951 3.76062C9.79416 3.99712 9.41578 4.26779 9.15539 4.5242C9.03765 4.64013 8.83016 4.65195 8.70797 4.54075C8.3656 4.22927 7.83055 3.82972 7.48695 3.59724C5.02751 1.93327 0.552479 4.12667 2.46137 8.80789C3.16064 10.9091 6.49294 13.8902 8.45917 14.9875Z" fill="url(#paint4_linear_1906_720)"/>
<path d="M8.45917 14.9875C8.72416 15.1354 9.043 15.1272 9.30641 14.9766C11.0812 13.9624 14.1652 11.6275 15.3764 8.59456C17.1542 4.64566 12.98 1.4934 10.0951 3.76062C9.79416 3.99712 9.41578 4.26779 9.15539 4.5242C9.03765 4.64013 8.83016 4.65195 8.70797 4.54075C8.3656 4.22927 7.83055 3.82972 7.48695 3.59724C5.02751 1.93327 0.552479 4.12667 2.46137 8.80789C3.16064 10.9091 6.49294 13.8902 8.45917 14.9875Z" fill="url(#paint5_linear_1906_720)"/>
<path d="M8.45917 14.9875C8.72416 15.1354 9.043 15.1272 9.30641 14.9766C11.0812 13.9624 14.1652 11.6275 15.3764 8.59456C17.1542 4.64566 12.98 1.4934 10.0951 3.76062C9.79416 3.99712 9.41578 4.26779 9.15539 4.5242C9.03765 4.64013 8.83016 4.65195 8.70797 4.54075C8.3656 4.22927 7.83055 3.82972 7.48695 3.59724C5.02751 1.93327 0.552479 4.12667 2.46137 8.80789C3.16064 10.9091 6.49294 13.8902 8.45917 14.9875Z" fill="url(#paint6_radial_1906_720)" fill-opacity="0.6"/>
<path d="M8.80078 5.74467V9.1241C8.80078 9.57226 9.34346 9.78471 9.62287 9.43427C10.4873 8.35001 11.1844 7.03156 10.4064 5.95459C10.1081 5.54169 9.53658 5.27715 9.06964 5.36131C8.89494 5.39279 8.80078 5.56715 8.80078 5.74467Z" fill="#FA1C56"/>
<path d="M14.416 7.47344C15.2912 6.62267 15.4287 5.34463 14.7231 4.61885C14.0176 3.89307 12.7362 3.9944 11.861 4.84517C10.9858 5.69594 10.8483 6.97398 11.5539 7.69976C12.2594 8.42554 13.5408 8.32421 14.416 7.47344Z" fill="url(#paint7_radial_1906_720)"/>
<path d="M12.5203 3.70413C12.9797 3.76188 13.3619 3.73044 13.3741 3.63392C13.3862 3.53739 13.0236 3.41232 12.5642 3.35457C12.1048 3.29682 11.7226 3.32825 11.7104 3.42478C11.6983 3.52131 12.0609 3.64637 12.5203 3.70413Z" fill="#FF7383"/>
<path d="M5.57451 3.64611C5.98992 3.64106 6.326 3.58165 6.32517 3.51343C6.32434 3.4452 5.98691 3.39399 5.5715 3.39905C5.15609 3.40411 4.82001 3.46351 4.82084 3.53173C4.82167 3.59996 5.1591 3.65117 5.57451 3.64611Z" fill="#FF93BA" fill-opacity="0.5"/>
<path d="M8.27531 5.4576L8.43014 10.5347C5.0248 7.2222 4.36998 4.89604 5.67488 4.37409C6.91322 3.87877 7.90387 4.68366 8.27531 5.4576Z" fill="url(#paint8_radial_1906_720)"/>
<path d="M8.02696 5.16068C7.61089 5.10125 7.48211 4.75617 7.46973 4.59106C7.70748 4.83873 7.94028 4.85937 8.02696 4.83873V5.16068Z" fill="#FF7383"/>
<defs>
<radialGradient id="paint0_radial_1906_720" cx="0" cy="0" r="1" gradientUnits="userSpaceOnUse" gradientTransform="translate(8.78895 3.31385) rotate(90) scale(11.3847 12.0869)">
<stop stop-color="#FC0000"/>
<stop offset="0.527969" stop-color="#FF3B79"/>
<stop offset="1" stop-color="#F724B3"/>
</radialGradient>
<radialGradient id="paint1_radial_1906_720" cx="0" cy="0" r="1" gradientUnits="userSpaceOnUse" gradientTransform="translate(12.3266 6.15178) rotate(134.402) scale(10.5329 19.729)">
<stop offset="0.797874" stop-color="#C82092" stop-opacity="0"/>
<stop offset="0.908039" stop-color="#C82092"/>
</radialGradient>
<radialGradient id="paint2_radial_1906_720" cx="0" cy="0" r="1" gradientUnits="userSpaceOnUse" gradientTransform="translate(10.8267 9.33447) rotate(-158.663) scale(11.2681 15.929)">
<stop offset="0.40984" stop-color="#B91D43" stop-opacity="0"/>
<stop offset="0.833898" stop-color="#B91D43"/>
</radialGradient>
<radialGradient id="paint3_radial_1906_720" cx="0" cy="0" r="1" gradientUnits="userSpaceOnUse" gradientTransform="translate(8.62916 7.36651) rotate(90) scale(9.80697)">
<stop offset="0.671096" stop-color="#FF7AF2" stop-opacity="0"/>
<stop offset="0.933555" stop-color="#FFBCE6"/>
</radialGradient>
<linearGradient id="paint4_linear_1906_720" x1="9.71154" y1="8.51446" x2="13.6802" y2="13.2376" gradientUnits="userSpaceOnUse">
<stop offset="0.694491" stop-color="#FF7AF2" stop-opacity="0"/>
<stop offset="0.933555" stop-color="#FFBCE6"/>
</linearGradient>
<linearGradient id="paint5_linear_1906_720" x1="9.21953" y1="8.71125" x2="4.56204" y2="13.9591" gradientUnits="userSpaceOnUse">
<stop offset="0.694491" stop-color="#FF7AF2" stop-opacity="0"/>
<stop offset="0.933555" stop-color="#FFBCE6"/>
</linearGradient>
<radialGradient id="paint6_radial_1906_720" cx="0" cy="0" r="1" gradientUnits="userSpaceOnUse" gradientTransform="translate(10.0096 6.91091) rotate(164.618) scale(8.52676 9.00504)">
<stop offset="0.802083" stop-color="#FF73A6" stop-opacity="0"/>
<stop offset="1" stop-color="#FF93BA"/>
</radialGradient>
<radialGradient id="paint7_radial_1906_720" cx="0" cy="0" r="1" gradientUnits="userSpaceOnUse" gradientTransform="translate(14.6781 4.57605) rotate(128.737) scale(3.61157 4.80245)">
<stop stop-color="#FF7383"/>
<stop offset="1" stop-color="#FF7383" stop-opacity="0"/>
</radialGradient>
<radialGradient id="paint8_radial_1906_720" cx="0" cy="0" r="1" gradientUnits="userSpaceOnUse" gradientTransform="translate(9.01834 7.37818) rotate(-135.591) scale(6.2837 11.1546)">
<stop stop-color="#FF6274"/>
<stop offset="1" stop-color="#FF6274" stop-opacity="0"/>
</radialGradient>
</defs>
</svg>
