<svg xmlns="http://www.w3.org/2000/svg" width="23" height="24" viewBox="0 0 23 24" fill="none">
  <path fill-rule="evenodd" clip-rule="evenodd" d="M10.3969 0.229798C10.7969 -0.0765992 11.357 -0.0765992 11.757 0.229798L21.7262 7.86616C21.996 8.07284 22.1538 8.39063 22.1538 8.72727V20.7273C22.1538 21.5953 21.8037 22.4277 21.1805 23.0414C20.5573 23.6552 19.7121 24 18.8308 24H3.32308C2.44174 24 1.5965 23.6552 0.973307 23.0414C0.350109 22.4277 0 21.5953 0 20.7273V8.72727C0 8.39063 0.157816 8.07284 0.427635 7.86616L10.3969 0.229798ZM2.21538 9.26082V20.7273C2.21538 21.0166 2.33209 21.2941 2.53982 21.4987C2.74755 21.7032 3.0293 21.8182 3.32308 21.8182H18.8308C19.1245 21.8182 19.4063 21.7032 19.614 21.4987C19.8218 21.2941 19.9385 21.0166 19.9385 20.7273V9.26082L11.0769 2.47294L2.21538 9.26082Z" fill="#363636"/>
  <path fill-rule="evenodd" clip-rule="evenodd" d="M6.58594 12.1952C6.58594 11.6025 7.08857 11.1221 7.7086 11.1221H14.4446C15.0646 11.1221 15.5672 11.6025 15.5672 12.1952V22.9269C15.5672 23.5196 15.0646 24.0001 14.4446 24.0001C13.8245 24.0001 13.3219 23.5196 13.3219 22.9269V13.2684H8.83126V22.9269C8.83126 23.5196 8.32863 24.0001 7.7086 24.0001C7.08857 24.0001 6.58594 23.5196 6.58594 22.9269V12.1952Z" fill="#363636"/>
</svg>