<svg xmlns="http://www.w3.org/2000/svg" width="23" height="24" viewBox="0 0 23 24" fill="none">
  <path fillRule="evenodd" clipRule="evenodd" d="M10.8969 0.229798C11.2969 -0.0765992 11.857 -0.0765992 12.257 0.229798L22.2262 7.86616C22.496 8.07284 22.6538 8.39063 22.6538 8.72727V20.7273C22.6538 21.5953 22.3037 22.4277 21.6805 23.0414C21.0573 23.6552 20.2121 24 19.3308 24H3.82308C2.94174 24 2.0965 23.6552 1.47331 23.0414C0.850109 22.4277 0.5 21.5953 0.5 20.7273V8.72727C0.5 8.39063 0.657816 8.07284 0.927635 7.86616L10.8969 0.229798ZM2.71538 9.26082V20.7273C2.71538 21.0166 2.83209 21.2941 3.03982 21.4987C3.24755 21.7032 3.5293 21.8182 3.82308 21.8182H19.3308C19.6245 21.8182 19.9063 21.7032 20.114 21.4987C20.3218 21.2941 20.4385 21.0166 20.4385 20.7273V9.26082L11.5769 2.47294L2.71538 9.26082Z" fill="black"/>
  <path fillRule="evenodd" clipRule="evenodd" d="M7.08594 12.1943C7.08594 11.6016 7.58857 11.1211 8.2086 11.1211H14.9446C15.5646 11.1211 16.0672 11.6016 16.0672 12.1943V22.926C16.0672 23.5187 15.5646 23.9991 14.9446 23.9991C14.3245 23.9991 13.8219 23.5187 13.8219 22.926V13.2674H9.33126V22.926C9.33126 23.5187 8.82863 23.9991 8.2086 23.9991C7.58857 23.9991 7.08594 23.5187 7.08594 22.926V12.1943Z" fill="black"/>
</svg>