<svg width="14" height="14" viewBox="0 0 14 14" fill="none" xmlns="http://www.w3.org/2000/svg">
<path fill-rule="evenodd" clip-rule="evenodd" d="M2.8 2.2C2.46863 2.2 2.2 2.46863 2.2 2.8V11.2C2.2 11.5314 2.46863 11.8 2.8 11.8H11.2C11.5314 11.8 11.8 11.5314 11.8 11.2V2.8C11.8 2.46863 11.5314 2.2 11.2 2.2H2.8ZM1 2.8C1 1.80589 1.80589 1 2.8 1H11.2C12.1941 1 13 1.80589 13 2.8V11.2C13 12.1941 12.1941 13 11.2 13H2.8C1.80589 13 1 12.1941 1 11.2V2.8Z" fill="#ffffff"/>
<path fill-rule="evenodd" clip-rule="evenodd" d="M0.8125 2.8C0.8125 1.70233 1.70233 0.8125 2.8 0.8125H11.2C12.2977 0.8125 13.1875 1.70233 13.1875 2.8V11.2C13.1875 12.2977 12.2977 13.1875 11.2 13.1875H2.8C1.70233 13.1875 0.8125 12.2977 0.8125 11.2V2.8ZM2.8 1.1875C1.90944 1.1875 1.1875 1.90944 1.1875 2.8V11.2C1.1875 12.0906 1.90944 12.8125 2.8 12.8125H11.2C12.0906 12.8125 12.8125 12.0906 12.8125 11.2V2.8C12.8125 1.90944 12.0906 1.1875 11.2 1.1875H2.8ZM2.8 2.3875C2.57218 2.3875 2.3875 2.57218 2.3875 2.8V11.2C2.3875 11.4278 2.57218 11.6125 2.8 11.6125H11.2C11.4278 11.6125 11.6125 11.4278 11.6125 11.2V2.8C11.6125 2.57218 11.4278 2.3875 11.2 2.3875H2.8ZM2.0125 2.8C2.0125 2.36508 2.36508 2.0125 2.8 2.0125H11.2C11.6349 2.0125 11.9875 2.36508 11.9875 2.8V11.2C11.9875 11.6349 11.6349 11.9875 11.2 11.9875H2.8C2.36508 11.9875 2.0125 11.6349 2.0125 11.2V2.8Z" fill="#ffffff"/>
<path fill-rule="evenodd" clip-rule="evenodd" d="M4.90039 4.5999C4.73471 4.5999 4.60039 4.73422 4.60039 4.8999C4.60039 5.06559 4.73471 5.1999 4.90039 5.1999C5.06608 5.1999 5.20039 5.06559 5.20039 4.8999C5.20039 4.73422 5.06608 4.5999 4.90039 4.5999ZM3.40039 4.8999C3.40039 4.07148 4.07196 3.3999 4.90039 3.3999C5.72882 3.3999 6.40039 4.07148 6.40039 4.8999C6.40039 5.72833 5.72882 6.3999 4.90039 6.3999C4.07196 6.3999 3.40039 5.72833 3.40039 4.8999Z" fill="#ffffff"/>
<path fill-rule="evenodd" clip-rule="evenodd" d="M3.21289 4.8999C3.21289 3.96792 3.96841 3.2124 4.90039 3.2124C5.83237 3.2124 6.58789 3.96792 6.58789 4.8999C6.58789 5.83188 5.83237 6.5874 4.90039 6.5874C3.96841 6.5874 3.21289 5.83188 3.21289 4.8999ZM4.90039 3.5874C4.17552 3.5874 3.58789 4.17503 3.58789 4.8999C3.58789 5.62478 4.17552 6.2124 4.90039 6.2124C5.62526 6.2124 6.21289 5.62478 6.21289 4.8999C6.21289 4.17503 5.62526 3.5874 4.90039 3.5874ZM4.90039 4.7874C4.83826 4.7874 4.78789 4.83777 4.78789 4.8999C4.78789 4.96203 4.83826 5.0124 4.90039 5.0124C4.96252 5.0124 5.01289 4.96203 5.01289 4.8999C5.01289 4.83777 4.96252 4.7874 4.90039 4.7874ZM4.41289 4.8999C4.41289 4.63066 4.63115 4.4124 4.90039 4.4124C5.16963 4.4124 5.38789 4.63066 5.38789 4.8999C5.38789 5.16914 5.16963 5.3874 4.90039 5.3874C4.63115 5.3874 4.41289 5.16914 4.41289 4.8999Z" fill="#ffffff"/>
<path fill-rule="evenodd" clip-rule="evenodd" d="M8.97593 5.37593C9.21025 5.14162 9.59015 5.14162 9.82446 5.37593L12.8245 8.37593C13.0588 8.61025 13.0588 8.99014 12.8245 9.22446C12.5901 9.45877 12.2102 9.45877 11.9759 9.22446L9.4002 6.64872L3.22446 12.8245C2.99014 13.0588 2.61025 13.0588 2.37593 12.8245C2.14162 12.5901 2.14162 12.2102 2.37593 11.9759L8.97593 5.37593Z" fill="#ffffff"/>
<path fill-rule="evenodd" clip-rule="evenodd" d="M8.84335 5.24335C9.15089 4.93581 9.6495 4.93581 9.95704 5.24335L12.957 8.24335C13.2646 8.55089 13.2646 9.0495 12.957 9.35704C12.6495 9.66458 12.1509 9.66458 11.8433 9.35704L9.4002 6.91389L3.35704 12.957C3.0495 13.2646 2.55089 13.2646 2.24335 12.957C1.93581 12.6495 1.93581 12.1509 2.24335 11.8433L8.84335 5.24335ZM9.69188 5.50851C9.53079 5.34742 9.2696 5.34742 9.10851 5.50851L2.50851 12.1085C2.34742 12.2696 2.34742 12.5308 2.50851 12.6919C2.66961 12.853 2.93079 12.853 3.09188 12.6919L9.26761 6.51614C9.34084 6.44292 9.45955 6.44292 9.53278 6.51614L12.1085 9.09188C12.2696 9.25297 12.5308 9.25297 12.6919 9.09188C12.853 8.93079 12.853 8.66961 12.6919 8.50851L9.69188 5.50851Z" fill="#ffffff"/>
</svg>
