<svg xmlns="http://www.w3.org/2000/svg" width="25" height="24" viewBox="0 0 25 24" fill="none">
  <path fillRule="evenodd" clipRule="evenodd" d="M13 14C11.8954 14 11 13.1046 11 12C11 10.8954 11.8954 10 13 10C14.1046 10 15 10.8954 15 12C15 13.1046 14.1046 14 13 14Z" fill="#A8A8A8"/>
  <path fillRule="evenodd" clipRule="evenodd" d="M6 14C4.89543 14 4 13.1046 4 12C4 10.8954 4.89543 10 6 10C7.10457 10 8 10.8954 8 12C8 13.1046 7.10457 14 6 14Z" fill="#A8A8A8"/>
  <path fillRule="evenodd" clipRule="evenodd" d="M20 14C18.8954 14 18 13.1046 18 12C18 10.8954 18.8954 10 20 10C21.1046 10 22 10.8954 22 12C22 13.1046 21.1046 14 20 14Z" fill="#A8A8A8"/>
</svg>