<svg xmlns="http://www.w3.org/2000/svg" width="25" height="24" viewBox="0 0 25 24" fill="none">
  <path fillRule="evenodd" clipRule="evenodd" d="M15.0795 1.53834C15.9061 1.18293 16.792 1 17.6868 1C18.5815 1 19.4675 1.18293 20.2941 1.53834C21.1205 1.89369 21.8714 2.41449 22.5039 3.071C23.1365 3.7273 23.6388 4.50686 23.9812 5.36446C24.3237 6.22221 24.5 7.14158 24.5 8.07006C24.5 8.99853 24.3237 9.91791 23.9812 10.7757C23.6387 11.6333 23.1368 12.4126 22.5041 13.0689C22.504 13.069 22.5041 13.0689 22.5041 13.0689L13.2407 22.6815C12.8315 23.1062 12.168 23.1062 11.7587 22.6815L2.49538 13.0689C1.21776 11.7431 0.5 9.945 0.5 8.07006C0.5 6.19512 1.21776 4.39697 2.49538 3.07118C3.773 1.7454 5.50583 1.00058 7.31265 1.00058C9.11948 1.00058 10.8523 1.7454 12.1299 3.07118L12.4997 3.45492L12.8693 3.07136C12.8693 3.07142 12.8694 3.0713 12.8693 3.07136C13.5018 2.41477 14.253 1.89372 15.0795 1.53834ZM17.6868 3.17479C17.0674 3.17479 16.454 3.30144 15.8817 3.54749C15.3095 3.79354 14.7895 4.15419 14.3516 4.60881L13.2407 5.76163C12.8315 6.18629 12.168 6.18629 11.7587 5.76163L10.648 4.60899C9.7634 3.69106 8.56364 3.17537 7.31265 3.17537C6.06166 3.17537 4.86191 3.69106 3.97732 4.60899C3.09274 5.52692 2.59578 6.77191 2.59578 8.07006C2.59578 9.36821 3.09274 10.6132 3.97732 11.5311L12.4997 20.3748L21.0221 11.5311C21.4602 11.0767 21.8079 10.537 22.0451 9.94316C22.2822 9.34933 22.4042 8.71284 22.4042 8.07006C22.4042 7.42727 22.2822 6.79078 22.0451 6.19695C21.8079 5.60312 21.4604 5.06359 21.0223 4.60917C20.5844 4.15455 20.0641 3.79354 19.4918 3.54749C18.9196 3.30144 18.3062 3.17479 17.6868 3.17479Z" fill="#A8A8A8"/>
</svg>