<svg width="18" height="18" viewBox="0 0 18 18" fill="none" xmlns="http://www.w3.org/2000/svg">
<g id="Group 2609150">
<path id="Vector (Stroke)" fill-rule="evenodd" clip-rule="evenodd" d="M10.8003 0.9C10.8003 0.402944 11.2032 0 11.7003 0H15.3003C16.0164 0 16.7031 0.284463 17.2095 0.790812C17.7158 1.29716 18.0003 1.98392 18.0003 2.7V15.3C18.0003 16.0161 17.7158 16.7028 17.2095 17.2092C16.7031 17.7155 16.0164 18 15.3003 18H11.7003C11.2032 18 10.8003 17.5971 10.8003 17.1C10.8003 16.6029 11.2032 16.2 11.7003 16.2H15.3003C15.539 16.2 15.7679 16.1052 15.9367 15.9364C16.1055 15.7676 16.2003 15.5387 16.2003 15.3V2.7C16.2003 2.46131 16.1055 2.23239 15.9367 2.0636C15.7679 1.89482 15.539 1.8 15.3003 1.8H11.7003C11.2032 1.8 10.8003 1.39706 10.8003 0.9Z" fill="white"/>
<path id="Vector (Stroke)_2" fill-rule="evenodd" clip-rule="evenodd" d="M6.5639 3.86321C6.91537 3.51174 7.48522 3.51174 7.83669 3.86321L12.3367 8.36321C12.6882 8.71468 12.6882 9.28453 12.3367 9.636L7.83669 14.136C7.48522 14.4875 6.91537 14.4875 6.5639 14.136C6.21242 13.7845 6.21242 13.2147 6.5639 12.8632L10.4275 8.99961L6.5639 5.13601C6.21242 4.78453 6.21242 4.21469 6.5639 3.86321Z" fill="white"/>
<path id="Vector (Stroke)_3" fill-rule="evenodd" clip-rule="evenodd" d="M0 8.99961C0 8.50255 0.402944 8.09961 0.9 8.09961H11.7C12.1971 8.09961 12.6 8.50255 12.6 8.99961C12.6 9.49667 12.1971 9.89961 11.7 9.89961H0.9C0.402944 9.89961 0 9.49667 0 8.99961Z" fill="white"/>
</g>
</svg>
