<svg width="18" height="18" viewBox="0 0 18 18" fill="none" xmlns="http://www.w3.org/2000/svg">
<path d="M7.27014 3.2748C7.25399 2.58713 7.79714 2.01654 8.48338 2.00035C9.16957 1.98417 9.73891 2.52851 9.75507 3.21617L9.76685 3.71779C9.98593 3.33041 10.4063 3.07447 10.8812 3.08843C11.5655 3.10854 12.1038 3.68142 12.0826 4.36723L11.9511 8.62354L12.6973 7.69584C13.1455 7.13859 13.9593 7.0503 14.5161 7.49859C15.0742 7.9479 15.1625 8.7658 14.7132 9.32434L14.3927 9.72282L14.3896 9.72745C14.095 10.1057 13.4917 10.88 12.7348 12.1321C12.4907 12.4991 12.2786 12.8911 12.0669 13.2824C11.7649 13.8405 11.4637 14.3971 11.0715 14.8778C10.2917 15.8413 9.10099 16.4571 7.76669 16.4571C6.14869 16.4571 4.7417 15.5515 4.0229 14.2186L4.02051 14.2227C3.36533 13.0464 3.26886 11.7454 3.2367 11.0485L3.16616 9.78944C3.16221 9.75713 3.1595 9.72441 3.1581 9.69133L3.0011 5.98444C2.97311 5.32343 3.48317 4.76392 4.1426 4.73229C4.51901 4.71424 4.86319 4.87201 5.09592 5.13345L5.07173 4.4086C5.04949 3.74249 5.57029 3.18443 6.23497 3.16214C6.66895 3.1476 7.05693 3.36501 7.28023 3.70307L7.27014 3.2748Z" fill="#FBC4B2"/>
<path d="M7.27014 3.2748C7.25399 2.58713 7.79714 2.01654 8.48338 2.00035C9.16957 1.98417 9.73891 2.52851 9.75507 3.21617L9.76685 3.71779C9.98593 3.33041 10.4063 3.07447 10.8812 3.08843C11.5655 3.10854 12.1038 3.68142 12.0826 4.36723L11.9511 8.62354L12.6973 7.69584C13.1455 7.13859 13.9593 7.0503 14.5161 7.49859C15.0742 7.9479 15.1625 8.7658 14.7132 9.32434L14.3927 9.72282L14.3896 9.72745C14.095 10.1057 13.4917 10.88 12.7348 12.1321C12.4907 12.4991 12.2786 12.8911 12.0669 13.2824C11.7649 13.8405 11.4637 14.3971 11.0715 14.8778C10.2917 15.8413 9.10099 16.4571 7.76669 16.4571C6.14869 16.4571 4.7417 15.5515 4.0229 14.2186L4.02051 14.2227C3.36533 13.0464 3.26886 11.7454 3.2367 11.0485L3.16616 9.78944C3.16221 9.75713 3.1595 9.72441 3.1581 9.69133L3.0011 5.98444C2.97311 5.32343 3.48317 4.76392 4.1426 4.73229C4.51901 4.71424 4.86319 4.87201 5.09592 5.13345L5.07173 4.4086C5.04949 3.74249 5.57029 3.18443 6.23497 3.16214C6.66895 3.1476 7.05693 3.36501 7.28023 3.70307L7.27014 3.2748Z" fill="url(#paint0_radial_1906_802)"/>
<path d="M7.27014 3.2748C7.25399 2.58713 7.79714 2.01654 8.48338 2.00035C9.16957 1.98417 9.73891 2.52851 9.75507 3.21617L9.76685 3.71779C9.98593 3.33041 10.4063 3.07447 10.8812 3.08843C11.5655 3.10854 12.1038 3.68142 12.0826 4.36723L11.9511 8.62354L12.6973 7.69584C13.1455 7.13859 13.9593 7.0503 14.5161 7.49859C15.0742 7.9479 15.1625 8.7658 14.7132 9.32434L14.3927 9.72282L14.3896 9.72745C14.095 10.1057 13.4917 10.88 12.7348 12.1321C12.4907 12.4991 12.2786 12.8911 12.0669 13.2824C11.7649 13.8405 11.4637 14.3971 11.0715 14.8778C10.2917 15.8413 9.10099 16.4571 7.76669 16.4571C6.14869 16.4571 4.7417 15.5515 4.0229 14.2186L4.02051 14.2227C3.36533 13.0464 3.26886 11.7454 3.2367 11.0485L3.16616 9.78944C3.16221 9.75713 3.1595 9.72441 3.1581 9.69133L3.0011 5.98444C2.97311 5.32343 3.48317 4.76392 4.1426 4.73229C4.51901 4.71424 4.86319 4.87201 5.09592 5.13345L5.07173 4.4086C5.04949 3.74249 5.57029 3.18443 6.23497 3.16214C6.66895 3.1476 7.05693 3.36501 7.28023 3.70307L7.27014 3.2748Z" fill="url(#paint1_radial_1906_802)"/>
<path d="M7.27014 3.2748C7.25399 2.58713 7.79714 2.01654 8.48338 2.00035C9.16957 1.98417 9.73891 2.52851 9.75507 3.21617L9.76685 3.71779C9.98593 3.33041 10.4063 3.07447 10.8812 3.08843C11.5655 3.10854 12.1038 3.68142 12.0826 4.36723L11.9511 8.62354L12.6973 7.69584C13.1455 7.13859 13.9593 7.0503 14.5161 7.49859C15.0742 7.9479 15.1625 8.7658 14.7132 9.32434L14.3927 9.72282L14.3896 9.72745C14.095 10.1057 13.4917 10.88 12.7348 12.1321C12.4907 12.4991 12.2786 12.8911 12.0669 13.2824C11.7649 13.8405 11.4637 14.3971 11.0715 14.8778C10.2917 15.8413 9.10099 16.4571 7.76669 16.4571C6.14869 16.4571 4.7417 15.5515 4.0229 14.2186L4.02051 14.2227C3.36533 13.0464 3.26886 11.7454 3.2367 11.0485L3.16616 9.78944C3.16221 9.75713 3.1595 9.72441 3.1581 9.69133L3.0011 5.98444C2.97311 5.32343 3.48317 4.76392 4.1426 4.73229C4.51901 4.71424 4.86319 4.87201 5.09592 5.13345L5.07173 4.4086C5.04949 3.74249 5.57029 3.18443 6.23497 3.16214C6.66895 3.1476 7.05693 3.36501 7.28023 3.70307L7.27014 3.2748Z" fill="url(#paint2_radial_1906_802)"/>
<path d="M7.27014 3.2748C7.25399 2.58713 7.79714 2.01654 8.48338 2.00035C9.16957 1.98417 9.73891 2.52851 9.75507 3.21617L9.76685 3.71779C9.98593 3.33041 10.4063 3.07447 10.8812 3.08843C11.5655 3.10854 12.1038 3.68142 12.0826 4.36723L11.9511 8.62354L12.6973 7.69584C13.1455 7.13859 13.9593 7.0503 14.5161 7.49859C15.0742 7.9479 15.1625 8.7658 14.7132 9.32434L14.3927 9.72282L14.3896 9.72745C14.095 10.1057 13.4917 10.88 12.7348 12.1321C12.4907 12.4991 12.2786 12.8911 12.0669 13.2824C11.7649 13.8405 11.4637 14.3971 11.0715 14.8778C10.2917 15.8413 9.10099 16.4571 7.76669 16.4571C6.14869 16.4571 4.7417 15.5515 4.0229 14.2186L4.02051 14.2227C3.36533 13.0464 3.26886 11.7454 3.2367 11.0485L3.16616 9.78944C3.16221 9.75713 3.1595 9.72441 3.1581 9.69133L3.0011 5.98444C2.97311 5.32343 3.48317 4.76392 4.1426 4.73229C4.51901 4.71424 4.86319 4.87201 5.09592 5.13345L5.07173 4.4086C5.04949 3.74249 5.57029 3.18443 6.23497 3.16214C6.66895 3.1476 7.05693 3.36501 7.28023 3.70307L7.27014 3.2748Z" fill="url(#paint3_radial_1906_802)"/>
<path d="M7.27014 3.2748C7.25399 2.58713 7.79714 2.01654 8.48338 2.00035C9.16957 1.98417 9.73891 2.52851 9.75507 3.21617L9.76685 3.71779C9.98593 3.33041 10.4063 3.07447 10.8812 3.08843C11.5655 3.10854 12.1038 3.68142 12.0826 4.36723L11.9511 8.62354L12.6973 7.69584C13.1455 7.13859 13.9593 7.0503 14.5161 7.49859C15.0742 7.9479 15.1625 8.7658 14.7132 9.32434L14.3927 9.72282L14.3896 9.72745C14.095 10.1057 13.4917 10.88 12.7348 12.1321C12.4907 12.4991 12.2786 12.8911 12.0669 13.2824C11.7649 13.8405 11.4637 14.3971 11.0715 14.8778C10.2917 15.8413 9.10099 16.4571 7.76669 16.4571C6.14869 16.4571 4.7417 15.5515 4.0229 14.2186L4.02051 14.2227C3.36533 13.0464 3.26886 11.7454 3.2367 11.0485L3.16616 9.78944C3.16221 9.75713 3.1595 9.72441 3.1581 9.69133L3.0011 5.98444C2.97311 5.32343 3.48317 4.76392 4.1426 4.73229C4.51901 4.71424 4.86319 4.87201 5.09592 5.13345L5.07173 4.4086C5.04949 3.74249 5.57029 3.18443 6.23497 3.16214C6.66895 3.1476 7.05693 3.36501 7.28023 3.70307L7.27014 3.2748Z" fill="url(#paint4_radial_1906_802)"/>
<path d="M3.09764 8.25075L3.0011 5.97633C2.97311 5.31674 3.48317 4.75843 4.1426 4.72686C4.51901 4.70885 4.86319 4.86628 5.09592 5.12716L5.09578 5.12289C5.18776 5.24476 5.32849 5.50532 5.35098 5.89257C5.37992 6.39099 5.43806 7.62497 5.46353 8.1797L3.09764 8.25075Z" fill="url(#paint5_linear_1906_802)"/>
<path d="M3.09764 8.25075L3.0011 5.97633C2.97311 5.31674 3.48317 4.75843 4.1426 4.72686C4.51901 4.70885 4.86319 4.86628 5.09592 5.12716L5.09578 5.12289C5.18776 5.24476 5.32849 5.50532 5.35098 5.89257C5.37992 6.39099 5.43806 7.62497 5.46353 8.1797L3.09764 8.25075Z" fill="url(#paint6_linear_1906_802)"/>
<path d="M3.09764 8.25075L3.0011 5.97633C2.97311 5.31674 3.48317 4.75843 4.1426 4.72686C4.51901 4.70885 4.86319 4.86628 5.09592 5.12716L5.09578 5.12289C5.18776 5.24476 5.32849 5.50532 5.35098 5.89257C5.37992 6.39099 5.43806 7.62497 5.46353 8.1797L3.09764 8.25075Z" fill="url(#paint7_radial_1906_802)"/>
<path d="M4.4182 5.82652C4.36658 5.27585 4.0886 5.15929 3.85547 5.15929C4.48251 4.88597 4.94878 5.25577 4.99701 5.82652L5.19799 8.4955L4.19311 9.48431L4.58702 8.35885C4.58702 7.72643 4.46644 6.34104 4.4182 5.82652Z" fill="#FFD5BD"/>
<path d="M5.09603 5.12267C5.18801 5.24454 5.32874 5.5051 5.35123 5.89235C5.36913 6.20072 5.47014 7.91071 5.5274 8.7956L7.67693 8.1925L7.4489 4.6525C7.44005 4.32775 7.44304 3.99137 7.28046 3.69963C7.05716 3.3623 6.66918 3.14535 6.23525 3.15987C5.57057 3.1821 5.04974 3.73897 5.07198 4.40365L5.09603 5.12267Z" fill="url(#paint8_linear_1906_802)"/>
<path d="M5.09603 5.12267C5.18801 5.24454 5.32874 5.5051 5.35123 5.89235C5.36913 6.20072 5.47014 7.91071 5.5274 8.7956L7.67693 8.1925L7.4489 4.6525C7.44005 4.32775 7.44304 3.99137 7.28046 3.69963C7.05716 3.3623 6.66918 3.14535 6.23525 3.15987C5.57057 3.1821 5.04974 3.73897 5.07198 4.40365L5.09603 5.12267Z" fill="url(#paint9_linear_1906_802)"/>
<path d="M5.09603 5.12267C5.18801 5.24454 5.32874 5.5051 5.35123 5.89235C5.36913 6.20072 5.47014 7.91071 5.5274 8.7956L7.67693 8.1925L7.4489 4.6525C7.44005 4.32775 7.44304 3.99137 7.28046 3.69963C7.05716 3.3623 6.66918 3.14535 6.23525 3.15987C5.57057 3.1821 5.04974 3.73897 5.07198 4.40365L5.09603 5.12267Z" fill="url(#paint10_linear_1906_802)"/>
<path d="M5.09603 5.12267C5.18801 5.24454 5.32874 5.5051 5.35123 5.89235C5.36913 6.20072 5.47014 7.91071 5.5274 8.7956L7.67693 8.1925L7.4489 4.6525C7.44005 4.32775 7.44304 3.99137 7.28046 3.69963C7.05716 3.3623 6.66918 3.14535 6.23525 3.15987C5.57057 3.1821 5.04974 3.73897 5.07198 4.40365L5.09603 5.12267Z" fill="url(#paint11_radial_1906_802)"/>
<path d="M6.58419 4.33946C6.53259 3.78879 6.2546 3.67223 6.02148 3.67223C6.6485 3.39891 7.11479 3.76871 7.163 4.33946L7.38341 7.77033L6.34726 8.24974L6.78027 7.29098C6.78027 6.65855 6.63245 4.85398 6.58419 4.33946Z" fill="#FFD5BD"/>
<path d="M9.63215 4.21414C9.63215 3.97885 9.71787 3.76983 9.76813 3.71155L9.76844 3.70974L9.75676 3.21357C9.74061 2.52737 9.17126 1.9842 8.48508 2.00035C7.79889 2.01651 7.25568 2.58587 7.27184 3.27206L7.28192 3.69941C7.43349 3.97137 7.44116 4.28212 7.44867 4.58607C7.47162 5.51752 7.58794 6.7328 7.64783 7.66266H9.57026C9.58317 6.65105 9.63215 4.54558 9.63215 4.21414Z" fill="url(#paint12_linear_1906_802)"/>
<path d="M9.63215 4.21414C9.63215 3.97885 9.71787 3.76983 9.76813 3.71155L9.76844 3.70974L9.75676 3.21357C9.74061 2.52737 9.17126 1.9842 8.48508 2.00035C7.79889 2.01651 7.25568 2.58587 7.27184 3.27206L7.28192 3.69941C7.43349 3.97137 7.44116 4.28212 7.44867 4.58607C7.47162 5.51752 7.58794 6.7328 7.64783 7.66266H9.57026C9.58317 6.65105 9.63215 4.54558 9.63215 4.21414Z" fill="url(#paint13_linear_1906_802)"/>
<path d="M9.63215 4.21414C9.63215 3.97885 9.71787 3.76983 9.76813 3.71155L9.76844 3.70974L9.75676 3.21357C9.74061 2.52737 9.17126 1.9842 8.48508 2.00035C7.79889 2.01651 7.25568 2.58587 7.27184 3.27206L7.28192 3.69941C7.43349 3.97137 7.44116 4.28212 7.44867 4.58607C7.47162 5.51752 7.58794 6.7328 7.64783 7.66266H9.57026C9.58317 6.65105 9.63215 4.54558 9.63215 4.21414Z" fill="url(#paint14_linear_1906_802)"/>
<path d="M9.63215 4.21414C9.63215 3.97885 9.71787 3.76983 9.76813 3.71155L9.76844 3.70974L9.75676 3.21357C9.74061 2.52737 9.17126 1.9842 8.48508 2.00035C7.79889 2.01651 7.25568 2.58587 7.27184 3.27206L7.28192 3.69941C7.43349 3.97137 7.44116 4.28212 7.44867 4.58607C7.47162 5.51752 7.58794 6.7328 7.64783 7.66266H9.57026C9.58317 6.65105 9.63215 4.54558 9.63215 4.21414Z" fill="url(#paint15_radial_1906_802)"/>
<path d="M8.71191 2.52844V7.73H9.33075C9.35859 6.63726 9.41436 4.25783 9.41436 3.48178C9.41436 2.70573 8.94606 2.52287 8.71191 2.52844Z" fill="#FFD5BD"/>
<path d="M9.76618 3.71181C9.71597 3.7701 9.6302 3.97911 9.6302 4.2144C9.6302 5.55509 9.56836 6.53999 9.56836 7.88088L11.9509 9.58685V8.60863L12.0824 4.36241C12.1036 3.67807 11.5653 3.10643 10.8809 3.08636C10.4061 3.07243 9.98567 3.32782 9.76665 3.71437L9.76654 3.71076L9.76618 3.71181Z" fill="url(#paint16_linear_1906_802)"/>
<path d="M9.76618 3.71181C9.71597 3.7701 9.6302 3.97911 9.6302 4.2144C9.6302 5.55509 9.56836 6.53999 9.56836 7.88088L11.9509 9.58685V8.60863L12.0824 4.36241C12.1036 3.67807 11.5653 3.10643 10.8809 3.08636C10.4061 3.07243 9.98567 3.32782 9.76665 3.71437L9.76654 3.71076L9.76618 3.71181Z" fill="url(#paint17_linear_1906_802)"/>
<path d="M9.76618 3.71181C9.71597 3.7701 9.6302 3.97911 9.6302 4.2144C9.6302 5.55509 9.56836 6.53999 9.56836 7.88088L11.9509 9.58685V8.60863L12.0824 4.36241C12.1036 3.67807 11.5653 3.10643 10.8809 3.08636C10.4061 3.07243 9.98567 3.32782 9.76665 3.71437L9.76654 3.71076L9.76618 3.71181Z" fill="url(#paint18_radial_1906_802)"/>
<path d="M11.0967 3.59485V8.79638H11.7155C11.7434 7.70369 11.7991 5.32423 11.7991 4.54818C11.7991 3.77213 11.3308 3.58928 11.0967 3.59485Z" fill="#FFD5BD"/>
<path d="M12.0152 8.52964L12.6974 7.68339C13.1456 7.12732 13.9594 7.03929 14.5162 7.4866C15.0743 7.93493 15.1626 8.75108 14.7133 9.30844L14.3928 9.70609L14.3897 9.71067C14.0951 10.0881 13.4918 10.8607 12.7349 12.1101C12.515 12.44 12.3211 12.7901 12.13 13.1417C10.5055 12.2733 10.7424 10.6398 11.104 9.87073L12.0152 8.52964Z" fill="url(#paint19_radial_1906_802)"/>
<path d="M12.0152 8.52964L12.6974 7.68339C13.1456 7.12732 13.9594 7.03929 14.5162 7.4866C15.0743 7.93493 15.1626 8.75108 14.7133 9.30844L14.3928 9.70609L14.3897 9.71067C14.0951 10.0881 13.4918 10.8607 12.7349 12.1101C12.515 12.44 12.3211 12.7901 12.13 13.1417C10.5055 12.2733 10.7424 10.6398 11.104 9.87073L12.0152 8.52964Z" fill="url(#paint20_linear_1906_802)"/>
<path d="M7.27014 3.27206C7.25399 2.58587 7.79714 2.01651 8.48338 2.00035C9.16957 1.9842 9.73891 2.52737 9.75507 3.21357L9.76685 3.71411C9.98593 3.32756 10.4063 3.07217 10.8812 3.08609C11.5655 3.10616 12.1038 3.67781 12.0826 4.36215L11.9511 8.60934L12.6973 7.6836C13.1455 7.12758 13.9593 7.0395 14.5161 7.4868C15.0742 7.93519 15.1625 8.75129 14.7132 9.30864L14.3927 9.7063L14.3896 9.71088C14.095 10.0883 13.4917 10.8609 12.7348 12.1103C12.4907 12.4766 12.2786 12.8677 12.0669 13.2582C11.7649 13.8151 11.4637 14.3705 11.0715 14.8502C10.2917 15.8116 9.10099 16.4261 7.76669 16.4261C6.14869 16.4261 4.7417 15.5225 4.0229 14.1924L4.02051 14.1965C3.36533 13.0228 3.26886 11.7245 3.2367 11.0291L3.16616 9.77272C3.16221 9.74051 3.1595 9.70789 3.1581 9.67481L3.0011 5.97589C2.97311 5.31631 3.48317 4.758 4.1426 4.72643C4.51901 4.70842 4.86319 4.86585 5.09592 5.12673L5.07173 4.40344C5.04949 3.73875 5.57029 3.18189 6.23497 3.15965C6.66895 3.14513 7.05693 3.36209 7.28023 3.69942L7.27014 3.27206Z" fill="url(#paint21_radial_1906_802)"/>
<path d="M7.27014 3.27206C7.25399 2.58587 7.79714 2.01651 8.48338 2.00035C9.16957 1.9842 9.73891 2.52737 9.75507 3.21357L9.76685 3.71411C9.98593 3.32756 10.4063 3.07217 10.8812 3.08609C11.5655 3.10616 12.1038 3.67781 12.0826 4.36215L11.9511 8.60934L12.6973 7.6836C13.1455 7.12758 13.9593 7.0395 14.5161 7.4868C15.0742 7.93519 15.1625 8.75129 14.7132 9.30864L14.3927 9.7063L14.3896 9.71088C14.095 10.0883 13.4917 10.8609 12.7348 12.1103C12.4907 12.4766 12.2786 12.8677 12.0669 13.2582C11.7649 13.8151 11.4637 14.3705 11.0715 14.8502C10.2917 15.8116 9.10099 16.4261 7.76669 16.4261C6.14869 16.4261 4.7417 15.5225 4.0229 14.1924L4.02051 14.1965C3.36533 13.0228 3.26886 11.7245 3.2367 11.0291L3.16616 9.77272C3.16221 9.74051 3.1595 9.70789 3.1581 9.67481L3.0011 5.97589C2.97311 5.31631 3.48317 4.758 4.1426 4.72643C4.51901 4.70842 4.86319 4.86585 5.09592 5.12673L5.07173 4.40344C5.04949 3.73875 5.57029 3.18189 6.23497 3.15965C6.66895 3.14513 7.05693 3.36209 7.28023 3.69942L7.27014 3.27206Z" fill="url(#paint22_radial_1906_802)"/>
<path d="M7.27014 3.27206C7.25399 2.58587 7.79714 2.01651 8.48338 2.00035C9.16957 1.9842 9.73891 2.52737 9.75507 3.21357L9.76685 3.71411C9.98593 3.32756 10.4063 3.07217 10.8812 3.08609C11.5655 3.10616 12.1038 3.67781 12.0826 4.36215L11.9511 8.60934L12.6973 7.6836C13.1455 7.12758 13.9593 7.0395 14.5161 7.4868C15.0742 7.93519 15.1625 8.75129 14.7132 9.30864L14.3927 9.7063L14.3896 9.71088C14.095 10.0883 13.4917 10.8609 12.7348 12.1103C12.4907 12.4766 12.2786 12.8677 12.0669 13.2582C11.7649 13.8151 11.4637 14.3705 11.0715 14.8502C10.2917 15.8116 9.10099 16.4261 7.76669 16.4261C6.14869 16.4261 4.7417 15.5225 4.0229 14.1924L4.02051 14.1965C3.36533 13.0228 3.26886 11.7245 3.2367 11.0291L3.16616 9.77272C3.16221 9.74051 3.1595 9.70789 3.1581 9.67481L3.0011 5.97589C2.97311 5.31631 3.48317 4.758 4.1426 4.72643C4.51901 4.70842 4.86319 4.86585 5.09592 5.12673L5.07173 4.40344C5.04949 3.73875 5.57029 3.18189 6.23497 3.15965C6.66895 3.14513 7.05693 3.36209 7.28023 3.69942L7.27014 3.27206Z" fill="url(#paint23_radial_1906_802)"/>
<path d="M7.27014 3.27206C7.25399 2.58587 7.79714 2.01651 8.48338 2.00035C9.16957 1.9842 9.73891 2.52737 9.75507 3.21357L9.76685 3.71411C9.98593 3.32756 10.4063 3.07217 10.8812 3.08609C11.5655 3.10616 12.1038 3.67781 12.0826 4.36215L11.9511 8.60934L12.6973 7.6836C13.1455 7.12758 13.9593 7.0395 14.5161 7.4868C15.0742 7.93519 15.1625 8.75129 14.7132 9.30864L14.3927 9.7063L14.3896 9.71088C14.095 10.0883 13.4917 10.8609 12.7348 12.1103C12.4907 12.4766 12.2786 12.8677 12.0669 13.2582C11.7649 13.8151 11.4637 14.3705 11.0715 14.8502C10.2917 15.8116 9.10099 16.4261 7.76669 16.4261C6.14869 16.4261 4.7417 15.5225 4.0229 14.1924L4.02051 14.1965C3.36533 13.0228 3.26886 11.7245 3.2367 11.0291L3.16616 9.77272C3.16221 9.74051 3.1595 9.70789 3.1581 9.67481L3.0011 5.97589C2.97311 5.31631 3.48317 4.758 4.1426 4.72643C4.51901 4.70842 4.86319 4.86585 5.09592 5.12673L5.07173 4.40344C5.04949 3.73875 5.57029 3.18189 6.23497 3.15965C6.66895 3.14513 7.05693 3.36209 7.28023 3.69942L7.27014 3.27206Z" fill="url(#paint24_radial_1906_802)"/>
<path d="M7.27014 3.27206C7.25399 2.58587 7.79714 2.01651 8.48338 2.00035C9.16957 1.9842 9.73891 2.52737 9.75507 3.21357L9.76685 3.71411C9.98593 3.32756 10.4063 3.07217 10.8812 3.08609C11.5655 3.10616 12.1038 3.67781 12.0826 4.36215L11.9511 8.60934L12.6973 7.6836C13.1455 7.12758 13.9593 7.0395 14.5161 7.4868C15.0742 7.93519 15.1625 8.75129 14.7132 9.30864L14.3927 9.7063L14.3896 9.71088C14.095 10.0883 13.4917 10.8609 12.7348 12.1103C12.4907 12.4766 12.2786 12.8677 12.0669 13.2582C11.7649 13.8151 11.4637 14.3705 11.0715 14.8502C10.2917 15.8116 9.10099 16.4261 7.76669 16.4261C6.14869 16.4261 4.7417 15.5225 4.0229 14.1924L4.02051 14.1965C3.36533 13.0228 3.26886 11.7245 3.2367 11.0291L3.16616 9.77272C3.16221 9.74051 3.1595 9.70789 3.1581 9.67481L3.0011 5.97589C2.97311 5.31631 3.48317 4.758 4.1426 4.72643C4.51901 4.70842 4.86319 4.86585 5.09592 5.12673L5.07173 4.40344C5.04949 3.73875 5.57029 3.18189 6.23497 3.15965C6.66895 3.14513 7.05693 3.36209 7.28023 3.69942L7.27014 3.27206Z" fill="url(#paint25_radial_1906_802)" fill-opacity="0.6"/>
<path d="M14.0618 8.5166C13.6788 8.89965 12.747 9.94068 12.084 11.0407" stroke="url(#paint26_linear_1906_802)" stroke-width="1.75128" stroke-linecap="round"/>
<path d="M5.33533 8.39258C5.18526 8.56941 4.67612 9.08391 4.38672 9.37332" stroke="url(#paint27_linear_1906_802)" stroke-width="0.583758" stroke-linecap="round"/>
<path d="M6.42871 8.08803C6.76638 7.9594 7.29374 7.70534 7.53812 7.52527" stroke="url(#paint28_linear_1906_802)" stroke-width="0.583758" stroke-linecap="round"/>
<path d="M8.31738 7.66125C8.63092 7.82204 9.16147 7.95869 9.49764 7.88527" stroke="url(#paint29_linear_1906_802)" stroke-width="0.583758" stroke-linecap="round"/>
<path d="M11.2598 9.52647C11.3964 9.3255 11.6376 8.92353 11.7421 8.80298" stroke="url(#paint30_linear_1906_802)" stroke-width="0.583758" stroke-linecap="round"/>
<path d="M11.7574 8.80324C10.857 8.79681 9.99411 8.26194 9.71541 8.03149C9.50961 9.1441 10.3532 9.96889 10.7846 10.2021L11.7574 8.80324Z" fill="url(#paint31_radial_1906_802)"/>
<defs>
<radialGradient id="paint0_radial_1906_802" cx="0" cy="0" r="1" gradientUnits="userSpaceOnUse" gradientTransform="translate(13.7193 9.96756) rotate(162.242) scale(10.487 16.0174)">
<stop offset="0.817521" stop-color="#DAA394" stop-opacity="0"/>
<stop offset="1" stop-color="#DAA394"/>
</radialGradient>
<radialGradient id="paint1_radial_1906_802" cx="0" cy="0" r="1" gradientUnits="userSpaceOnUse" gradientTransform="translate(9.70074 5.00789) rotate(103.477) scale(12.8389 8.84604)">
<stop offset="0.750766" stop-color="#C18396" stop-opacity="0"/>
<stop offset="1" stop-color="#C18396"/>
</radialGradient>
<radialGradient id="paint2_radial_1906_802" cx="0" cy="0" r="1" gradientUnits="userSpaceOnUse" gradientTransform="translate(11.0264 16.2214) rotate(-117.268) scale(4.42301 5.56281)">
<stop stop-color="#FBC5B8"/>
<stop offset="1" stop-color="#FBC5B8" stop-opacity="0"/>
</radialGradient>
<radialGradient id="paint3_radial_1906_802" cx="0" cy="0" r="1" gradientUnits="userSpaceOnUse" gradientTransform="translate(8.14428 5.07061) rotate(90.3653) scale(11.679 8.04496)">
<stop offset="0.927083" stop-color="#BB7D95" stop-opacity="0"/>
<stop offset="0.987027" stop-color="#BB7D95"/>
</radialGradient>
<radialGradient id="paint4_radial_1906_802" cx="0" cy="0" r="1" gradientUnits="userSpaceOnUse" gradientTransform="translate(14.2542 10.2751) rotate(-144.525) scale(0.888437 3.80459)">
<stop stop-color="#E3B3A6"/>
<stop offset="1" stop-color="#E3B3A6" stop-opacity="0"/>
</radialGradient>
<linearGradient id="paint5_linear_1906_802" x1="5.40119" y1="6.68961" x2="4.78422" y2="6.70453" gradientUnits="userSpaceOnUse">
<stop stop-color="#F9BAA2"/>
<stop offset="1" stop-color="#F9BAA2" stop-opacity="0"/>
</linearGradient>
<linearGradient id="paint6_linear_1906_802" x1="5.2447" y1="8.05061" x2="4.93213" y2="7.60305" gradientUnits="userSpaceOnUse">
<stop stop-color="#FBC4B2"/>
<stop offset="1" stop-color="#FBC4B2" stop-opacity="0"/>
</linearGradient>
<radialGradient id="paint7_radial_1906_802" cx="0" cy="0" r="1" gradientUnits="userSpaceOnUse" gradientTransform="translate(3.87368 4.52131) rotate(73.6238) scale(1.27005 3.1714)">
<stop stop-color="#DDAB8F"/>
<stop offset="1" stop-color="#DDAB8F" stop-opacity="0"/>
</radialGradient>
<linearGradient id="paint8_linear_1906_802" x1="7.64637" y1="5.77177" x2="6.97109" y2="5.82" gradientUnits="userSpaceOnUse">
<stop stop-color="#E7AA8E"/>
<stop offset="1" stop-color="#E7AA8E" stop-opacity="0"/>
</linearGradient>
<linearGradient id="paint9_linear_1906_802" x1="5.07129" y1="6.27497" x2="6.30456" y2="6.21307" gradientUnits="userSpaceOnUse">
<stop stop-color="#E2A486"/>
<stop offset="1" stop-color="#E2A486" stop-opacity="0"/>
</linearGradient>
<linearGradient id="paint10_linear_1906_802" x1="6.37412" y1="8.64094" x2="5.91405" y2="6.9399" gradientUnits="userSpaceOnUse">
<stop offset="0.405208" stop-color="#FBC4B2"/>
<stop offset="1" stop-color="#FBC4B2" stop-opacity="0"/>
</linearGradient>
<radialGradient id="paint11_radial_1906_802" cx="0" cy="0" r="1" gradientUnits="userSpaceOnUse" gradientTransform="translate(5.94497 2.90376) rotate(77.9639) scale(1.72451 3.05804)">
<stop stop-color="#D8B19A"/>
<stop offset="1" stop-color="#D8B19A" stop-opacity="0"/>
</radialGradient>
<linearGradient id="paint12_linear_1906_802" x1="7.43179" y1="5.20576" x2="8.50993" y2="5.15186" gradientUnits="userSpaceOnUse">
<stop stop-color="#DC9F80"/>
<stop offset="1" stop-color="#DC9F80" stop-opacity="0"/>
</linearGradient>
<linearGradient id="paint13_linear_1906_802" x1="9.65721" y1="5.34513" x2="9.22374" y2="5.34049" gradientUnits="userSpaceOnUse">
<stop stop-color="#F7BB9C"/>
<stop offset="1" stop-color="#F7BB9C" stop-opacity="0"/>
</linearGradient>
<linearGradient id="paint14_linear_1906_802" x1="8.50993" y1="7.99466" x2="8.50993" y2="7.06502" gradientUnits="userSpaceOnUse">
<stop offset="0.347826" stop-color="#FBC4B2"/>
<stop offset="1" stop-color="#FBC4B2" stop-opacity="0"/>
</linearGradient>
<radialGradient id="paint15_radial_1906_802" cx="0" cy="0" r="1" gradientUnits="userSpaceOnUse" gradientTransform="translate(9.90808 6.61627) rotate(-116.651) scale(4.99647 5.86457)">
<stop offset="0.869582" stop-color="#D6AC94" stop-opacity="0"/>
<stop offset="1" stop-color="#D6AC94"/>
</radialGradient>
<linearGradient id="paint16_linear_1906_802" x1="9.46464" y1="6.33635" x2="10.8254" y2="6.38456" gradientUnits="userSpaceOnUse">
<stop stop-color="#E4A38A"/>
<stop offset="1" stop-color="#E4A38A" stop-opacity="0"/>
</linearGradient>
<linearGradient id="paint17_linear_1906_802" x1="10.1838" y1="8.34917" x2="10.6521" y2="7.44602" gradientUnits="userSpaceOnUse">
<stop stop-color="#FBC4B2"/>
<stop offset="1" stop-color="#FBC4B2" stop-opacity="0"/>
</linearGradient>
<radialGradient id="paint18_radial_1906_802" cx="0" cy="0" r="1" gradientUnits="userSpaceOnUse" gradientTransform="translate(12.2337 8.3394) rotate(-108.542) scale(5.54126 5.98275)">
<stop offset="0.87772" stop-color="#E5B090" stop-opacity="0"/>
<stop offset="1" stop-color="#E5B090"/>
</radialGradient>
<radialGradient id="paint19_radial_1906_802" cx="0" cy="0" r="1" gradientUnits="userSpaceOnUse" gradientTransform="translate(12.2806 8.0954) rotate(37.5041) scale(0.871484 2.71353)">
<stop stop-color="#E8A987"/>
<stop offset="1" stop-color="#E8A987" stop-opacity="0"/>
</radialGradient>
<linearGradient id="paint20_linear_1906_802" x1="11.0104" y1="10.1715" x2="11.6857" y2="9.49422" gradientUnits="userSpaceOnUse">
<stop stop-color="#FBC4B2"/>
<stop offset="1" stop-color="#FBC4B2" stop-opacity="0"/>
</linearGradient>
<radialGradient id="paint21_radial_1906_802" cx="0" cy="0" r="1" gradientUnits="userSpaceOnUse" gradientTransform="translate(14.427 8.11974) rotate(129.971) scale(1.4266 1.00404)">
<stop stop-color="#FFD7C0"/>
<stop offset="1" stop-color="#FFD7C0" stop-opacity="0"/>
</radialGradient>
<radialGradient id="paint22_radial_1906_802" cx="0" cy="0" r="1" gradientUnits="userSpaceOnUse" gradientTransform="translate(11.8905 3.45091) rotate(130.365) scale(1.42805 1.54205)">
<stop stop-color="#FFD7C0"/>
<stop offset="1" stop-color="#FFD7C0" stop-opacity="0"/>
</radialGradient>
<radialGradient id="paint23_radial_1906_802" cx="0" cy="0" r="1" gradientUnits="userSpaceOnUse" gradientTransform="translate(9.60551 2.17241) rotate(112.533) scale(1.38417 1.46597)">
<stop offset="0.32493" stop-color="#FFD7C0"/>
<stop offset="1" stop-color="#FFD7C0" stop-opacity="0"/>
</radialGradient>
<radialGradient id="paint24_radial_1906_802" cx="0" cy="0" r="1" gradientUnits="userSpaceOnUse" gradientTransform="translate(6.54527 3.99496) rotate(122.8) scale(0.728134 0.852077)">
<stop stop-color="#FFD7C0"/>
<stop offset="1" stop-color="#FFD7C0" stop-opacity="0"/>
</radialGradient>
<radialGradient id="paint25_radial_1906_802" cx="0" cy="0" r="1" gradientUnits="userSpaceOnUse" gradientTransform="translate(4.42351 5.57268) rotate(120.411) scale(0.725464 0.783371)">
<stop stop-color="#FFD7C0"/>
<stop offset="1" stop-color="#FFD7C0" stop-opacity="0"/>
</radialGradient>
<linearGradient id="paint26_linear_1906_802" x1="14.3067" y1="8.70501" x2="11.9898" y2="12.0014" gradientUnits="userSpaceOnUse">
<stop stop-color="#FFCEB9"/>
<stop offset="1" stop-color="#FFCEB9" stop-opacity="0"/>
</linearGradient>
<linearGradient id="paint27_linear_1906_802" x1="5.47084" y1="8.58479" x2="4.81678" y2="9.92923" gradientUnits="userSpaceOnUse">
<stop stop-color="#FFD6C0"/>
<stop offset="1" stop-color="#FFD6C0" stop-opacity="0"/>
</linearGradient>
<linearGradient id="paint28_linear_1906_802" x1="7.69659" y1="7.63558" x2="7.48117" y2="8.53811" gradientUnits="userSpaceOnUse">
<stop stop-color="#FFD6C0"/>
<stop offset="1" stop-color="#FFD6C0" stop-opacity="0"/>
</linearGradient>
<linearGradient id="paint29_linear_1906_802" x1="9.66624" y1="7.70915" x2="9.62627" y2="8.11952" gradientUnits="userSpaceOnUse">
<stop stop-color="#FFD6C0"/>
<stop offset="1" stop-color="#FFD6C0" stop-opacity="0"/>
</linearGradient>
<linearGradient id="paint30_linear_1906_802" x1="11.7782" y1="8.96114" x2="11.0381" y2="9.57236" gradientUnits="userSpaceOnUse">
<stop stop-color="#FFD6C0"/>
<stop offset="1" stop-color="#FFD6C0" stop-opacity="0"/>
</linearGradient>
<radialGradient id="paint31_radial_1906_802" cx="0" cy="0" r="1" gradientUnits="userSpaceOnUse" gradientTransform="translate(11.8458 8.77916) rotate(144.625) scale(1.97185 2.80602)">
<stop stop-color="#FFD0BA"/>
<stop offset="1" stop-color="#FFD0BA" stop-opacity="0"/>
</radialGradient>
</defs>
</svg>
