<svg xmlns="http://www.w3.org/2000/svg" width="23" height="24" viewBox="0 0 23 24" fill="none">
  <path fill-rule="evenodd" clip-rule="evenodd" d="M5.59416 2.237C7.04827 0.804672 9.02048 0 11.0769 0C13.1333 0 15.1055 0.804672 16.5597 2.237C18.0138 3.66932 18.8307 5.61197 18.8307 7.63759C18.8307 11.2956 19.625 13.5672 20.357 14.8891C20.7245 15.5528 21.0823 15.9882 21.3309 16.2467C21.4555 16.3762 21.5534 16.4621 21.6124 16.5105C21.6419 16.5347 21.6616 16.5495 21.6702 16.5558C21.6715 16.5567 21.6726 16.5575 21.6733 16.5581C22.0704 16.8268 22.2461 17.3182 22.1062 17.7735C21.9647 18.2337 21.5342 18.5484 21.046 18.5484H1.10777C0.619649 18.5484 0.189064 18.2337 0.0476146 17.7735C-0.0923328 17.3182 0.083389 16.8268 0.480476 16.5581C0.481254 16.5575 0.482311 16.5567 0.483642 16.5558C0.49217 16.5495 0.511946 16.5347 0.541435 16.5105C0.600381 16.4621 0.698282 16.3762 0.822869 16.2467C1.07146 15.9882 1.42934 15.5528 1.79686 14.8891C2.52885 13.5672 3.32313 11.2956 3.32313 7.63759C3.32313 5.61197 4.14005 3.66932 5.59416 2.237ZM0.491673 16.5506C0.49176 16.5505 0.491847 16.5505 0.491935 16.5504C0.49193 16.5504 0.491925 16.5504 0.49192 16.5504L0.491673 16.5506ZM3.48854 16.3663H18.6653C18.581 16.2302 18.4964 16.0862 18.4121 15.934C17.4826 14.2554 16.6153 11.6171 16.6153 7.63759C16.6153 6.19072 16.0318 4.80311 14.9932 3.78002C13.9545 2.75693 12.5458 2.18217 11.0769 2.18217C9.60803 2.18217 8.19931 2.75693 7.16066 3.78002C6.12201 4.80311 5.5385 6.19072 5.5385 7.63759C5.5385 11.6171 4.67126 14.2554 3.74172 15.934C3.65743 16.0862 3.57282 16.2302 3.48854 16.3663Z" fill="#363636"/>
  <path fill-rule="evenodd" clip-rule="evenodd" d="M8.60528 20.8779C9.13445 20.5756 9.81227 20.753 10.1192 21.2743C10.2166 21.4396 10.3564 21.5768 10.5245 21.6722C10.6927 21.7677 10.8833 21.8179 11.0774 21.8179C11.2714 21.8179 11.4621 21.7677 11.6302 21.6722C11.7984 21.5768 11.9381 21.4396 12.0355 21.2743C12.3425 20.753 13.0203 20.5756 13.5495 20.8779C14.0786 21.1803 14.2588 21.848 13.9518 22.3692C13.6597 22.8652 13.2404 23.277 12.736 23.5632C12.2315 23.8494 11.6595 24 11.0774 24C10.4952 24 9.92327 23.8494 9.4188 23.5632C8.91433 23.277 8.49506 22.8652 8.20294 22.3692C7.89598 21.848 8.07612 21.1803 8.60528 20.8779Z" fill="#363636"/>
</svg>