<svg xmlns="http://www.w3.org/2000/svg" width="21" height="24" viewBox="0 0 21 24" fill="none">
  <path fillRule="evenodd" clipRule="evenodd" d="M1.27475 9.68359C1.75009 9.68359 2.13543 10.0896 2.13543 10.5903V20.2622C2.13543 20.6631 2.28656 21.0474 2.55558 21.3309C2.8246 21.6143 3.18946 21.7735 3.56991 21.7735H17.3409C17.7213 21.7735 18.0862 21.6143 18.3552 21.3309C18.6242 21.0474 18.7753 20.6631 18.7753 20.2622V10.5903C18.7753 10.0896 19.1607 9.68359 19.636 9.68359C20.1114 9.68359 20.4967 10.0896 20.4967 10.5903V20.2622C20.4967 21.144 20.1642 21.9897 19.5724 22.6132C18.9806 23.2367 18.1779 23.587 17.3409 23.587H3.56991C2.73292 23.587 1.93022 23.2367 1.33839 22.6132C0.746552 21.9897 0.414062 21.144 0.414062 20.2622V10.5903C0.414062 10.0896 0.799404 9.68359 1.27475 9.68359Z" fill="#767676"/>
  <path fillRule="evenodd" clipRule="evenodd" d="M0 10.5901C0 9.88134 0.550542 9.26953 1.27448 9.26953C1.99841 9.26953 2.54895 9.88134 2.54895 10.5901V20.262C2.54895 20.5598 2.66145 20.8414 2.85543 21.0457C3.0487 21.2493 3.3061 21.3594 3.56964 21.3594H17.3406C17.6041 21.3594 17.8615 21.2493 18.0548 21.0457C18.2488 20.8414 18.3613 20.5598 18.3613 20.262V10.5901C18.3613 9.88134 18.9118 9.26953 19.6358 9.26953C20.3597 9.26953 20.9102 9.88134 20.9102 10.5901V20.262C20.9102 21.2467 20.5391 22.1952 19.8722 22.8978C19.2047 23.6011 18.2945 24.0005 17.3406 24.0005H3.56964C2.61574 24.0005 1.70557 23.6011 1.038 22.8978C0.371121 22.1952 0 21.2467 0 20.262V10.5901ZM1.27448 10.0971C1.04772 10.0971 0.827582 10.2972 0.827582 10.5901V20.262C0.827582 21.0408 1.12144 21.7836 1.63823 22.328C2.15433 22.8717 2.84956 23.1729 3.56964 23.1729H17.3406C18.0607 23.1729 18.7559 22.8717 19.272 22.328C19.7888 21.7836 20.0826 21.0408 20.0826 20.262V10.5901C20.0826 10.2972 19.8625 10.0971 19.6358 10.0971C19.409 10.0971 19.1889 10.2972 19.1889 10.5901V20.262C19.1889 20.7658 18.9991 21.253 18.655 21.6155C18.3103 21.9787 17.838 22.187 17.3406 22.187H3.56964C3.07228 22.187 2.59995 21.9787 2.25519 21.6155C1.91113 21.253 1.72137 20.7658 1.72137 20.262V10.5901C1.72137 10.2972 1.50123 10.0971 1.27448 10.0971Z" fill="#767676"/>
  <path fillRule="evenodd" clipRule="evenodd" d="M9.85105 0.660863C10.1844 0.331796 10.725 0.331796 11.0584 0.660863L15.6115 5.15488C15.9449 5.48395 15.9449 6.01747 15.6115 6.34654C15.2781 6.67561 14.7376 6.67561 14.4042 6.34654L10.4547 2.44835L6.50524 6.34654C6.17184 6.67561 5.6313 6.67561 5.2979 6.34654C4.9645 6.01747 4.9645 5.48395 5.2979 5.15488L9.85105 0.660863Z" fill="#767676"/>
  <path fillRule="evenodd" clipRule="evenodd" d="M9.5601 0.366091C10.0546 -0.12203 10.8542 -0.12203 11.3488 0.366091L11.0581 0.660591L11.3488 0.366091L15.9019 4.86011C16.3995 5.3512 16.3995 6.14968 15.9019 6.64077C15.4074 7.12889 14.6078 7.12889 14.1133 6.64077L10.4544 3.02948L6.79564 6.64077C6.3011 7.12889 5.5015 7.12889 5.00695 6.64077C4.5094 6.14968 4.5094 5.3512 5.00695 4.86011L9.5601 0.366091ZM10.7674 0.955092C10.5952 0.785078 10.3137 0.785078 10.1415 0.955092L5.5883 5.44911C5.41906 5.61616 5.41906 5.88472 5.5883 6.05177C5.76055 6.22178 6.04204 6.22178 6.21429 6.05177L10.1638 2.15358C10.3249 1.99452 10.584 1.99452 10.7451 2.15358L14.6946 6.05177C14.8669 6.22178 15.1483 6.22178 15.3206 6.05177C15.4898 5.88472 15.4898 5.61616 15.3206 5.44911L10.7674 0.955092Z" fill="#767676"/>
  <path fillRule="evenodd" clipRule="evenodd" d="M10.455 0.414062C10.8816 0.414062 11.2274 0.771807 11.2274 1.21311V15.0632C11.2274 15.5045 10.8816 15.8623 10.455 15.8623C10.0284 15.8623 9.68262 15.5045 9.68262 15.0632V1.21311C9.68262 0.771807 10.0284 0.414062 10.455 0.414062Z" fill="#767676"/>
  <path fillRule="evenodd" clipRule="evenodd" d="M9.26855 1.21284C9.26855 0.55634 9.78652 0 10.4548 0C11.123 0 11.641 0.55634 11.641 1.21284V15.0629C11.641 15.7194 11.123 16.2758 10.4548 16.2758C9.78652 16.2758 9.26855 15.7194 9.26855 15.0629V1.21284ZM10.4548 0.827582C10.2698 0.827582 10.0961 0.986731 10.0961 1.21284V15.0629C10.0961 15.289 10.2698 15.4482 10.4548 15.4482C10.6397 15.4482 10.8134 15.289 10.8134 15.0629V1.21284C10.8134 0.986731 10.6397 0.827582 10.4548 0.827582Z" fill="#767676"/>
</svg>