<svg width="18" height="18" viewBox="0 0 18 18" fill="none" xmlns="http://www.w3.org/2000/svg">
<path d="M7.00274 2.79064C7.00274 1.8017 7.80442 1 8.79335 1C9.78229 1 10.584 1.8017 10.584 2.79064V4.85131C10.584 5.02705 10.5718 5.20227 10.5447 5.37744C10.5347 5.44142 10.5248 5.50529 10.5187 5.56911C10.4991 5.77085 10.523 6.03428 10.6601 6.21125L10.3327 6.52712C11.9745 7.36588 13.0995 9.08114 13.0995 11.0609C13.0995 11.5972 13.0169 12.1141 12.8639 12.5995L12.3213 16.1423H7.90994V16.1408C5.18568 16.0822 3 14.3056 3 11.0609C3 9.15345 3.91331 7.61793 5.29502 6.75211L5.2916 6.74939C5.38572 6.68399 5.49672 6.6174 5.61571 6.54607L5.61658 6.54552C6.00846 6.31062 6.48736 6.0235 6.74006 5.55397C6.95918 5.14692 7.0017 4.48624 7.0017 4.17996L7.00274 4.18042V2.79064Z" fill="url(#paint0_linear_1906_742)"/>
<path d="M7.00274 2.79064C7.00274 1.8017 7.80442 1 8.79335 1C9.78229 1 10.584 1.8017 10.584 2.79064V4.85131C10.584 5.02705 10.5718 5.20227 10.5447 5.37744C10.5347 5.44142 10.5248 5.50529 10.5187 5.56911C10.4991 5.77085 10.523 6.03428 10.6601 6.21125L10.3327 6.52712C11.9745 7.36588 13.0995 9.08114 13.0995 11.0609C13.0995 11.5972 13.0169 12.1141 12.8639 12.5995L12.3213 16.1423H7.90994V16.1408C5.18568 16.0822 3 14.3056 3 11.0609C3 9.15345 3.91331 7.61793 5.29502 6.75211L5.2916 6.74939C5.38572 6.68399 5.49672 6.6174 5.61571 6.54607L5.61658 6.54552C6.00846 6.31062 6.48736 6.0235 6.74006 5.55397C6.95918 5.14692 7.0017 4.48624 7.0017 4.17996L7.00274 4.18042V2.79064Z" fill="url(#paint1_radial_1906_742)"/>
<path d="M7.00274 2.79064C7.00274 1.8017 7.80442 1 8.79335 1C9.78229 1 10.584 1.8017 10.584 2.79064V4.85131C10.584 5.02705 10.5718 5.20227 10.5447 5.37744C10.5347 5.44142 10.5248 5.50529 10.5187 5.56911C10.4991 5.77085 10.523 6.03428 10.6601 6.21125L10.3327 6.52712C11.9745 7.36588 13.0995 9.08114 13.0995 11.0609C13.0995 11.5972 13.0169 12.1141 12.8639 12.5995L12.3213 16.1423H7.90994V16.1408C5.18568 16.0822 3 14.3056 3 11.0609C3 9.15345 3.91331 7.61793 5.29502 6.75211L5.2916 6.74939C5.38572 6.68399 5.49672 6.6174 5.61571 6.54607L5.61658 6.54552C6.00846 6.31062 6.48736 6.0235 6.74006 5.55397C6.95918 5.14692 7.0017 4.48624 7.0017 4.17996L7.00274 4.18042V2.79064Z" fill="url(#paint2_radial_1906_742)"/>
<path d="M7.00274 2.79064C7.00274 1.8017 7.80442 1 8.79335 1C9.78229 1 10.584 1.8017 10.584 2.79064V4.85131C10.584 5.02705 10.5718 5.20227 10.5447 5.37744C10.5347 5.44142 10.5248 5.50529 10.5187 5.56911C10.4991 5.77085 10.523 6.03428 10.6601 6.21125L10.3327 6.52712C11.9745 7.36588 13.0995 9.08114 13.0995 11.0609C13.0995 11.5972 13.0169 12.1141 12.8639 12.5995L12.3213 16.1423H7.90994V16.1408C5.18568 16.0822 3 14.3056 3 11.0609C3 9.15345 3.91331 7.61793 5.29502 6.75211L5.2916 6.74939C5.38572 6.68399 5.49672 6.6174 5.61571 6.54607L5.61658 6.54552C6.00846 6.31062 6.48736 6.0235 6.74006 5.55397C6.95918 5.14692 7.0017 4.48624 7.0017 4.17996L7.00274 4.18042V2.79064Z" fill="url(#paint3_radial_1906_742)"/>
<path d="M7.00274 2.79064C7.00274 1.8017 7.80442 1 8.79335 1C9.78229 1 10.584 1.8017 10.584 2.79064V4.85131C10.584 5.02705 10.5718 5.20227 10.5447 5.37744C10.5347 5.44142 10.5248 5.50529 10.5187 5.56911C10.4991 5.77085 10.523 6.03428 10.6601 6.21125L10.3327 6.52712C11.9745 7.36588 13.0995 9.08114 13.0995 11.0609C13.0995 11.5972 13.0169 12.1141 12.8639 12.5995L12.3213 16.1423H7.90994V16.1408C5.18568 16.0822 3 14.3056 3 11.0609C3 9.15345 3.91331 7.61793 5.29502 6.75211L5.2916 6.74939C5.38572 6.68399 5.49672 6.6174 5.61571 6.54607L5.61658 6.54552C6.00846 6.31062 6.48736 6.0235 6.74006 5.55397C6.95918 5.14692 7.0017 4.48624 7.0017 4.17996L7.00274 4.18042V2.79064Z" fill="url(#paint4_radial_1906_742)"/>
<path d="M7.00274 2.79064C7.00274 1.8017 7.80442 1 8.79335 1C9.78229 1 10.584 1.8017 10.584 2.79064V4.85131C10.584 5.02705 10.5718 5.20227 10.5447 5.37744C10.5347 5.44142 10.5248 5.50529 10.5187 5.56911C10.4991 5.77085 10.523 6.03428 10.6601 6.21125L10.3327 6.52712C11.9745 7.36588 13.0995 9.08114 13.0995 11.0609C13.0995 11.5972 13.0169 12.1141 12.8639 12.5995L12.3213 16.1423H7.90994V16.1408C5.18568 16.0822 3 14.3056 3 11.0609C3 9.15345 3.91331 7.61793 5.29502 6.75211L5.2916 6.74939C5.38572 6.68399 5.49672 6.6174 5.61571 6.54607L5.61658 6.54552C6.00846 6.31062 6.48736 6.0235 6.74006 5.55397C6.95918 5.14692 7.0017 4.48624 7.0017 4.17996L7.00274 4.18042V2.79064Z" fill="url(#paint5_radial_1906_742)"/>
<path d="M7.00274 2.79064C7.00274 1.8017 7.80442 1 8.79335 1C9.78229 1 10.584 1.8017 10.584 2.79064V4.85131C10.584 5.02705 10.5718 5.20227 10.5447 5.37744C10.5347 5.44142 10.5248 5.50529 10.5187 5.56911C10.4991 5.77085 10.523 6.03428 10.6601 6.21125L10.3327 6.52712C11.9745 7.36588 13.0995 9.08114 13.0995 11.0609C13.0995 11.5972 13.0169 12.1141 12.8639 12.5995L12.3213 16.1423H7.90994V16.1408C5.18568 16.0822 3 14.3056 3 11.0609C3 9.15345 3.91331 7.61793 5.29502 6.75211L5.2916 6.74939C5.38572 6.68399 5.49672 6.6174 5.61571 6.54607L5.61658 6.54552C6.00846 6.31062 6.48736 6.0235 6.74006 5.55397C6.95918 5.14692 7.0017 4.48624 7.0017 4.17996L7.00274 4.18042V2.79064Z" fill="url(#paint6_radial_1906_742)"/>
<path d="M7.00274 2.79064C7.00274 1.8017 7.80442 1 8.79335 1C9.78229 1 10.584 1.8017 10.584 2.79064V4.85131C10.584 5.02705 10.5718 5.20227 10.5447 5.37744C10.5347 5.44142 10.5248 5.50529 10.5187 5.56911C10.4991 5.77085 10.523 6.03428 10.6601 6.21125L10.3327 6.52712C11.9745 7.36588 13.0995 9.08114 13.0995 11.0609C13.0995 11.5972 13.0169 12.1141 12.8639 12.5995L12.3213 16.1423H7.90994V16.1408C5.18568 16.0822 3 14.3056 3 11.0609C3 9.15345 3.91331 7.61793 5.29502 6.75211L5.2916 6.74939C5.38572 6.68399 5.49672 6.6174 5.61571 6.54607L5.61658 6.54552C6.00846 6.31062 6.48736 6.0235 6.74006 5.55397C6.95918 5.14692 7.0017 4.48624 7.0017 4.17996L7.00274 4.18042V2.79064Z" fill="url(#paint7_linear_1906_742)"/>
<path d="M13.2159 7.99019C13.2159 7.22281 12.5938 6.60071 11.8264 6.60071H10.2874C9.51998 6.60071 8.89788 7.22281 8.89788 7.99019C8.89788 8.41812 9.09135 8.80085 9.39556 9.05574C9.05922 9.31024 8.8418 9.71421 8.8418 10.1679C8.8418 10.5927 9.03243 10.9739 9.33278 11.2296C9.03243 11.4845 8.8418 11.8647 8.8418 12.2895V12.358C8.8418 12.7387 8.99491 13.0837 9.24294 13.3347C8.99524 13.5797 8.8418 13.9199 8.8418 14.2958C8.8418 15.0426 9.44713 15.6479 10.1939 15.6479H11.7205C12.4672 15.6479 13.0726 15.0426 13.0726 14.2958C13.0726 14.0487 13.0063 13.817 12.8904 13.6176C13.3642 13.3963 13.6926 12.9155 13.6926 12.358V12.2895C13.6926 11.8595 13.4972 11.4752 13.1906 11.2203C13.4847 10.9647 13.6708 10.5876 13.6708 10.1679C13.6708 9.61125 13.3434 9.12941 12.8708 8.90676C13.0856 8.66211 13.2159 8.34134 13.2159 7.99019Z" fill="url(#paint8_linear_1906_742)"/>
<path d="M14.457 7.4088V7.4088C14.457 6.53366 13.7476 5.82422 12.8725 5.82422H11.1173C10.2422 5.82422 9.53276 6.53366 9.53276 7.4088V7.4088C9.53276 8.28394 10.2422 8.99338 11.1173 8.99338H12.8725C13.7476 8.99338 14.457 8.28394 14.457 7.4088Z" fill="url(#paint9_linear_1906_742)"/>
<path d="M14.457 7.4088V7.4088C14.457 6.53366 13.7476 5.82422 12.8725 5.82422H11.1173C10.2422 5.82422 9.53276 6.53366 9.53276 7.4088V7.4088C9.53276 8.28394 10.2422 8.99338 11.1173 8.99338H12.8725C13.7476 8.99338 14.457 8.28394 14.457 7.4088Z" fill="url(#paint10_radial_1906_742)"/>
<path d="M14.457 7.4088V7.4088C14.457 6.53366 13.7476 5.82422 12.8725 5.82422H11.1173C10.2422 5.82422 9.53276 6.53366 9.53276 7.4088V7.4088C9.53276 8.28394 10.2422 8.99338 11.1173 8.99338H12.8725C13.7476 8.99338 14.457 8.28394 14.457 7.4088Z" fill="url(#paint11_radial_1906_742)"/>
<path d="M13.2449 6.60059H11.2737C10.8955 6.60059 10.5889 6.90721 10.5889 7.28545V7.28546C10.5889 7.6637 10.8955 7.97033 11.2737 7.97033H13.2449C13.6232 7.97033 13.9298 7.6637 13.9298 7.28546V7.28545C13.9298 6.90721 13.6232 6.60059 13.2449 6.60059Z" fill="url(#paint12_linear_1906_742)"/>
<path d="M12.751 16.1425C13.6026 16.1425 14.293 15.4521 14.293 14.6005C14.293 13.7489 13.6026 13.0586 12.751 13.0586H11.0101C10.1585 13.0586 9.46815 13.7489 9.46815 14.6005C9.46815 15.4521 10.1585 16.1425 11.0101 16.1425H12.751Z" fill="url(#paint13_linear_1906_742)"/>
<path d="M12.751 16.1425C13.6026 16.1425 14.293 15.4521 14.293 14.6005C14.293 13.7489 13.6026 13.0586 12.751 13.0586H11.0101C10.1585 13.0586 9.46815 13.7489 9.46815 14.6005C9.46815 15.4521 10.1585 16.1425 11.0101 16.1425H12.751Z" fill="url(#paint14_radial_1906_742)"/>
<path d="M12.751 16.1425C13.6026 16.1425 14.293 15.4521 14.293 14.6005C14.293 13.7489 13.6026 13.0586 12.751 13.0586H11.0101C10.1585 13.0586 9.46815 13.7489 9.46815 14.6005C9.46815 15.4521 10.1585 16.1425 11.0101 16.1425H12.751Z" fill="url(#paint15_radial_1906_742)"/>
<path d="M13.5301 13.9747H11.4097C11.1878 13.9747 11.0078 14.1547 11.0078 14.3766C11.0078 14.5986 11.1878 14.7785 11.4097 14.7785H13.5301C13.752 14.7785 13.932 14.5986 13.932 14.3766C13.932 14.1547 13.752 13.9747 13.5301 13.9747Z" fill="url(#paint16_linear_1906_742)"/>
<path d="M15.001 12.3903V12.3121C15.001 11.437 14.2915 10.7275 13.4164 10.7275H11.0537C10.1786 10.7275 9.46914 11.437 9.46914 12.3121V12.3903C9.46914 13.2654 10.1786 13.9749 11.0537 13.9749H13.4164C14.2915 13.9749 15.001 13.2654 15.001 12.3903Z" fill="url(#paint17_linear_1906_742)"/>
<path d="M15.001 12.3903V12.3121C15.001 11.437 14.2915 10.7275 13.4164 10.7275H11.0537C10.1786 10.7275 9.46914 11.437 9.46914 12.3121V12.3903C9.46914 13.2654 10.1786 13.9749 11.0537 13.9749H13.4164C14.2915 13.9749 15.001 13.2654 15.001 12.3903Z" fill="url(#paint18_radial_1906_742)"/>
<path d="M15.001 12.3903V12.3121C15.001 11.437 14.2915 10.7275 13.4164 10.7275H11.0537C10.1786 10.7275 9.46914 11.437 9.46914 12.3121V12.3903C9.46914 13.2654 10.1786 13.9749 11.0537 13.9749H13.4164C14.2915 13.9749 15.001 13.2654 15.001 12.3903Z" fill="url(#paint19_radial_1906_742)"/>
<path d="M14.0538 11.8682H11.1958C10.9739 11.8682 10.7939 12.0481 10.7939 12.2701C10.7939 12.492 10.9739 12.672 11.1958 12.672H14.0538C14.2758 12.672 14.4557 12.492 14.4557 12.2701C14.4557 12.0481 14.2758 11.8682 14.0538 11.8682Z" fill="url(#paint20_linear_1906_742)"/>
<path d="M14.9756 9.89625V9.88914C14.9756 9.014 14.2661 8.30457 13.391 8.30457H11.0532C10.1781 8.30457 9.46864 9.014 9.46864 9.88914V9.89625C9.46864 10.7714 10.1781 11.4808 11.0532 11.4808H13.391C14.2661 11.4808 14.9756 10.7714 14.9756 9.89625Z" fill="url(#paint21_linear_1906_742)"/>
<path d="M14.9756 9.89625V9.88914C14.9756 9.014 14.2661 8.30457 13.391 8.30457H11.0532C10.1781 8.30457 9.46864 9.014 9.46864 9.88914V9.89625C9.46864 10.7714 10.1781 11.4808 11.0532 11.4808H13.391C14.2661 11.4808 14.9756 10.7714 14.9756 9.89625Z" fill="url(#paint22_radial_1906_742)"/>
<path d="M13.7721 8.97266H11.2366C10.8584 8.97266 10.5518 9.27928 10.5518 9.65752V9.65753C10.5518 10.0358 10.8584 10.3424 11.2366 10.3424H13.7721C14.1504 10.3424 14.457 10.0358 14.457 9.65753V9.65752C14.457 9.27928 14.1504 8.97266 13.7721 8.97266Z" fill="url(#paint23_linear_1906_742)"/>
<path d="M8.7996 1C7.81072 1 7.00898 1.8017 7.00898 2.79064V4.18042L7.00795 4.17996C7.00795 4.48624 6.96542 5.14692 6.74631 5.55397C6.4936 6.02356 6.01471 6.31062 5.62283 6.54552C5.50351 6.61707 5.3922 6.68383 5.29785 6.74939C5.83954 7.18325 6.94881 8.05022 6.97604 8.0298C7.00327 8.00938 8.25226 7.34633 8.87333 7.01734L8.84692 6.64136C9.81397 6.61625 10.5903 5.82443 10.5903 4.85131V2.79064C10.5903 1.8017 9.78854 1 8.7996 1Z" fill="url(#paint24_radial_1906_742)"/>
<path d="M10.1322 2.32281C10.1322 1.96648 9.84332 1.67761 9.48699 1.67761C9.13066 1.67761 8.8418 1.96648 8.8418 2.32281V5.38708C8.8418 5.74341 9.13066 6.03227 9.48699 6.03227C9.84332 6.03227 10.1322 5.74341 10.1322 5.38708V2.32281Z" fill="url(#paint25_linear_1906_742)"/>
<defs>
<linearGradient id="paint0_linear_1906_742" x1="11.0641" y1="6.42518" x2="4.88074" y2="18.2255" gradientUnits="userSpaceOnUse">
<stop stop-color="#FFDDBE"/>
<stop offset="1" stop-color="#E7AFA8"/>
</linearGradient>
<radialGradient id="paint1_radial_1906_742" cx="0" cy="0" r="1" gradientUnits="userSpaceOnUse" gradientTransform="translate(10.2078 1.77532) rotate(138.814) scale(2.01799 1.57451)">
<stop stop-color="#FFE6C7"/>
<stop offset="1" stop-color="#FFE6C7" stop-opacity="0"/>
</radialGradient>
<radialGradient id="paint2_radial_1906_742" cx="0" cy="0" r="1" gradientUnits="userSpaceOnUse" gradientTransform="translate(5.98238 8.57115) rotate(133.564) scale(4.03602 2.92375)">
<stop stop-color="#F2C0A5"/>
<stop offset="1" stop-color="#F2C0A5" stop-opacity="0"/>
</radialGradient>
<radialGradient id="paint3_radial_1906_742" cx="0" cy="0" r="1" gradientUnits="userSpaceOnUse" gradientTransform="translate(11.1805 9.0562) rotate(135.794) scale(5.82037 3.58811)">
<stop stop-color="#DDA895"/>
<stop offset="1" stop-color="#DDA895" stop-opacity="0"/>
</radialGradient>
<radialGradient id="paint4_radial_1906_742" cx="0" cy="0" r="1" gradientUnits="userSpaceOnUse" gradientTransform="translate(6.05153 18.3723) rotate(-62.6117) scale(8.02721 14.2723)">
<stop stop-color="#C08494"/>
<stop offset="1" stop-color="#C08494" stop-opacity="0"/>
</radialGradient>
<radialGradient id="paint5_radial_1906_742" cx="0" cy="0" r="1" gradientUnits="userSpaceOnUse" gradientTransform="translate(11.3401 11.2221) rotate(180) scale(8.45841 13.0179)">
<stop offset="0.863834" stop-color="#EDB29B" stop-opacity="0"/>
<stop offset="1" stop-color="#EDB29B"/>
</radialGradient>
<radialGradient id="paint6_radial_1906_742" cx="0" cy="0" r="1" gradientUnits="userSpaceOnUse" gradientTransform="translate(10.3227 6.05633) rotate(38.8999) scale(0.850665 1.12026)">
<stop stop-color="#FFDBBA"/>
<stop offset="1" stop-color="#FFDBBA" stop-opacity="0"/>
</radialGradient>
<linearGradient id="paint7_linear_1906_742" x1="8.04977" y1="16.8069" x2="8.04977" y2="14.9351" gradientUnits="userSpaceOnUse">
<stop stop-color="#B57895"/>
<stop offset="1" stop-color="#B57895" stop-opacity="0"/>
</linearGradient>
<linearGradient id="paint8_linear_1906_742" x1="10.8853" y1="7.60712" x2="10.8853" y2="15.9751" gradientUnits="userSpaceOnUse">
<stop stop-color="#B5755F"/>
<stop offset="1" stop-color="#B3748D"/>
</linearGradient>
<linearGradient id="paint9_linear_1906_742" x1="14.457" y1="7.40879" x2="10.0221" y2="7.40879" gradientUnits="userSpaceOnUse">
<stop stop-color="#FFD8BA"/>
<stop offset="1" stop-color="#ECB9A3"/>
</linearGradient>
<radialGradient id="paint10_radial_1906_742" cx="0" cy="0" r="1" gradientUnits="userSpaceOnUse" gradientTransform="translate(9.981 8.3612) scale(3.60791 1.44713)">
<stop stop-color="#DFA995"/>
<stop offset="1" stop-color="#DFA995" stop-opacity="0"/>
</radialGradient>
<radialGradient id="paint11_radial_1906_742" cx="0" cy="0" r="1" gradientUnits="userSpaceOnUse" gradientTransform="translate(10.3337 8.81347) rotate(-142.633) scale(1.26386 0.845993)">
<stop stop-color="#CA8C6F"/>
<stop offset="1" stop-color="#CA8C6F" stop-opacity="0"/>
</radialGradient>
<linearGradient id="paint12_linear_1906_742" x1="13.7562" y1="6.97613" x2="10.1549" y2="6.97613" gradientUnits="userSpaceOnUse">
<stop stop-color="#FFE7CA"/>
<stop offset="1" stop-color="#FFE7CA" stop-opacity="0"/>
</linearGradient>
<linearGradient id="paint13_linear_1906_742" x1="13.8703" y1="14.6005" x2="9.46818" y2="14.6005" gradientUnits="userSpaceOnUse">
<stop stop-color="#FECEB7"/>
<stop offset="1" stop-color="#DAA59E"/>
</linearGradient>
<radialGradient id="paint14_radial_1906_742" cx="0" cy="0" r="1" gradientUnits="userSpaceOnUse" gradientTransform="translate(10.858 16.1425) scale(4.46915 0.847294)">
<stop stop-color="#BF8196"/>
<stop offset="1" stop-color="#BF8196" stop-opacity="0"/>
</radialGradient>
<radialGradient id="paint15_radial_1906_742" cx="0" cy="0" r="1" gradientUnits="userSpaceOnUse" gradientTransform="translate(10.6286 13.6) scale(3.66438 0.823886)">
<stop stop-color="#B57767"/>
<stop offset="1" stop-color="#B57767" stop-opacity="0"/>
</radialGradient>
<linearGradient id="paint16_linear_1906_742" x1="13.7801" y1="14.1951" x2="10.6281" y2="14.1951" gradientUnits="userSpaceOnUse">
<stop stop-color="#FFD2C1"/>
<stop offset="1" stop-color="#FFD2C1" stop-opacity="0"/>
</linearGradient>
<linearGradient id="paint17_linear_1906_742" x1="14.5164" y1="12.3512" x2="9.46914" y2="12.3512" gradientUnits="userSpaceOnUse">
<stop stop-color="#FFDDC1"/>
<stop offset="1" stop-color="#E5B1A3"/>
</linearGradient>
<radialGradient id="paint18_radial_1906_742" cx="0" cy="0" r="1" gradientUnits="userSpaceOnUse" gradientTransform="translate(10.5898 13.9749) scale(5.01865 1.78532)">
<stop offset="0.139674" stop-color="#CA8E96"/>
<stop offset="1" stop-color="#CA8E96" stop-opacity="0"/>
</radialGradient>
<radialGradient id="paint19_radial_1906_742" cx="0" cy="0" r="1" gradientUnits="userSpaceOnUse" gradientTransform="translate(11.0367 11.0114) scale(2.58821 1.05066)">
<stop stop-color="#BB7E6C"/>
<stop offset="1" stop-color="#BB7E6C" stop-opacity="0"/>
</radialGradient>
<linearGradient id="paint20_linear_1906_742" x1="14.2655" y1="12.0886" x2="10.3184" y2="12.0886" gradientUnits="userSpaceOnUse">
<stop stop-color="#FFE2C9"/>
<stop offset="1" stop-color="#FFE2C9" stop-opacity="0"/>
</linearGradient>
<linearGradient id="paint21_linear_1906_742" x1="14.9756" y1="9.89273" x2="9.46864" y2="9.89273" gradientUnits="userSpaceOnUse">
<stop stop-color="#FFDFBF"/>
<stop offset="1" stop-color="#E2AE9C"/>
</linearGradient>
<radialGradient id="paint22_radial_1906_742" cx="0" cy="0" r="1" gradientUnits="userSpaceOnUse" gradientTransform="translate(10.8673 11.4808) scale(4.40712 2.04564)">
<stop stop-color="#D39797"/>
<stop offset="1" stop-color="#D39797" stop-opacity="0"/>
</radialGradient>
<linearGradient id="paint23_linear_1906_742" x1="14.2541" y1="9.3482" x2="10.0446" y2="9.3482" gradientUnits="userSpaceOnUse">
<stop stop-color="#FFE8CA"/>
<stop offset="1" stop-color="#FFE8CA" stop-opacity="0"/>
</linearGradient>
<radialGradient id="paint24_radial_1906_742" cx="0" cy="0" r="1" gradientUnits="userSpaceOnUse" gradientTransform="translate(7.04879 3.21681) rotate(90) scale(3.44617 1.3601)">
<stop stop-color="#E0A892"/>
<stop offset="1" stop-color="#E0A892" stop-opacity="0"/>
</radialGradient>
<linearGradient id="paint25_linear_1906_742" x1="10.0651" y1="2.87162" x2="8.6742" y2="2.87162" gradientUnits="userSpaceOnUse">
<stop stop-color="#FFE7CA"/>
<stop offset="1" stop-color="#FFE7CA" stop-opacity="0"/>
</linearGradient>
</defs>
</svg>
