<svg xmlns="http://www.w3.org/2000/svg" width="25" height="24" viewBox="0 0 25 24" fill="none">
  <path fill-rule="evenodd" clip-rule="evenodd" d="M24.1095 0.390524C24.6302 0.911223 24.6302 1.75544 24.1095 2.27614L2.77614 23.6095C2.25544 24.1302 1.41122 24.1302 0.890524 23.6095C0.369825 23.0888 0.369825 22.2446 0.890524 21.7239L22.2239 0.390524C22.7446 -0.130175 23.5888 -0.130175 24.1095 0.390524Z" fill="#363636"/>
  <path fill-rule="evenodd" clip-rule="evenodd" d="M0.890524 0.390524C1.41122 -0.130175 2.25544 -0.130175 2.77614 0.390524L24.1095 21.7239C24.6302 22.2446 24.6302 23.0888 24.1095 23.6095C23.5888 24.1302 22.7446 24.1302 22.2239 23.6095L0.890524 2.27614C0.369825 1.75544 0.369825 0.911223 0.890524 0.390524Z" fill="#363636"/>
</svg>