<svg xmlns="http://www.w3.org/2000/svg" width="23" height="24" viewBox="0 0 23 24" fill="none">
  <path fill-rule="evenodd" clip-rule="evenodd" d="M6.09416 2.237C7.54827 0.804672 9.52048 0 11.5769 0C13.6333 0 15.6055 0.804672 17.0597 2.237C18.5138 3.66932 19.3307 5.61197 19.3307 7.63759C19.3307 11.2956 20.125 13.5672 20.857 14.8891C21.2245 15.5528 21.5823 15.9882 21.8309 16.2467C21.9555 16.3762 22.0534 16.4621 22.1124 16.5105C22.1419 16.5347 22.1616 16.5495 22.1702 16.5558C22.1715 16.5567 22.1726 16.5575 22.1733 16.5581C22.5704 16.8268 22.7461 17.3182 22.6062 17.7735C22.4647 18.2337 22.0342 18.5484 21.546 18.5484H1.60777C1.11965 18.5484 0.689064 18.2337 0.547615 17.7735C0.407667 17.3182 0.583389 16.8268 0.980476 16.5581C0.981254 16.5575 0.982311 16.5567 0.983642 16.5558C0.99217 16.5495 1.01195 16.5347 1.04143 16.5105C1.10038 16.4621 1.19828 16.3762 1.32287 16.2467C1.57146 15.9882 1.92934 15.5528 2.29686 14.8891C3.02885 13.5672 3.82313 11.2956 3.82313 7.63759C3.82313 5.61197 4.64005 3.66932 6.09416 2.237ZM0.991673 16.5506C0.99176 16.5505 0.991847 16.5505 0.991935 16.5504C0.99193 16.5504 0.991925 16.5504 0.99192 16.5504L0.991673 16.5506ZM3.98854 16.3663H19.1653C19.081 16.2302 18.9964 16.0862 18.9121 15.934C17.9826 14.2554 17.1153 11.6171 17.1153 7.63759C17.1153 6.19072 16.5318 4.80311 15.4932 3.78002C14.4545 2.75693 13.0458 2.18217 11.5769 2.18217C10.108 2.18217 8.69931 2.75693 7.66066 3.78002C6.62201 4.80311 6.0385 6.19072 6.0385 7.63759C6.0385 11.6171 5.17126 14.2554 4.24172 15.934C4.15743 16.0862 4.07282 16.2302 3.98854 16.3663Z" fill="black"/>
  <path fill-rule="evenodd" clip-rule="evenodd" d="M9.10577 20.8779C9.63494 20.5756 10.3128 20.753 10.6197 21.2743C10.7171 21.4396 10.8569 21.5768 11.025 21.6722C11.1932 21.7677 11.3838 21.8179 11.5779 21.8179C11.7719 21.8179 11.9626 21.7677 12.1307 21.6722C12.2989 21.5768 12.4386 21.4396 12.536 21.2743C12.843 20.753 13.5208 20.5756 14.05 20.8779C14.5791 21.1803 14.7593 21.848 14.4523 22.3692C14.1602 22.8652 13.7409 23.277 13.2364 23.5632C12.732 23.8494 12.16 24 11.5779 24C10.9957 24 10.4238 23.8494 9.91929 23.5632C9.41482 23.277 8.99554 22.8652 8.70343 22.3692C8.39647 21.848 8.5766 21.1803 9.10577 20.8779Z" fill="black"/>
</svg>