<svg xmlns="http://www.w3.org/2000/svg" width="25" height="24" viewBox="0 0 25 24" fill="none">
  <rect x="0.5" width="24" height="24" rx="12" fill="#363636"/>
  <path fill-rule="evenodd" clip-rule="evenodd" d="M18.4431 6.05654C18.9638 6.57724 18.9638 7.42146 18.4431 7.94216L8.44313 17.9422C7.92244 18.4629 7.07822 18.4629 6.55752 17.9422C6.03682 17.4215 6.03682 16.5772 6.55752 16.0565L16.5575 6.05654C17.0782 5.53584 17.9224 5.53584 18.4431 6.05654Z" fill="white"/>
  <path fill-rule="evenodd" clip-rule="evenodd" d="M6.55752 6.05654C7.07822 5.53584 7.92244 5.53584 8.44313 6.05654L18.4431 16.0565C18.9638 16.5772 18.9638 17.4215 18.4431 17.9422C17.9224 18.4629 17.0782 18.4629 16.5575 17.9422L6.55752 7.94216C6.03682 7.42146 6.03682 6.57724 6.55752 6.05654Z" fill="white"/>
</svg>