<svg xmlns="http://www.w3.org/2000/svg" width="26" height="31" viewBox="0 0 26 31" fill="none">
  <g clip-path="url(#clip0_377_5408)">
    <path d="M21.6667 0H4.33333C3.18406 0 2.08186 0.544344 1.2692 1.51328C0.456546 2.48222 0 3.79638 0 5.16667L0 20.6667C0 22.037 0.456546 23.3511 1.2692 24.32C2.08186 25.289 3.18406 25.8333 4.33333 25.8333H7.475L12.2969 30.6939C12.4925 30.8913 12.7405 30.9996 12.9968 30.9996C13.253 30.9996 13.501 30.8913 13.6966 30.6939L18.525 25.8333H21.6667C22.8159 25.8333 23.9181 25.289 24.7308 24.32C25.5435 23.3511 26 22.037 26 20.6667V5.16667C26 3.79638 25.5435 2.48222 24.7308 1.51328C23.9181 0.544344 22.8159 0 21.6667 0ZM23.8333 20.6667C23.8333 21.3518 23.6051 22.0089 23.1987 22.4934C22.7924 22.9778 22.2413 23.25 21.6667 23.25H18.525C18.0129 23.2502 17.5174 23.4666 17.1264 23.861L13 28.0162L8.87575 23.861C8.48419 23.4661 7.98785 23.2496 7.475 23.25H4.33333C3.7587 23.25 3.2076 22.9778 2.80127 22.4934C2.39494 22.0089 2.16667 21.3518 2.16667 20.6667V5.16667C2.16667 4.48152 2.39494 3.82444 2.80127 3.33997C3.2076 2.8555 3.7587 2.58333 4.33333 2.58333H21.6667C22.2413 2.58333 22.7924 2.8555 23.1987 3.33997C23.6051 3.82444 23.8333 4.48152 23.8333 5.16667V20.6667Z" fill="black"/>
    <path d="M7.58333 9.04134H13C13.2873 9.04134 13.5629 8.90526 13.766 8.66302C13.9692 8.42079 14.0833 8.09225 14.0833 7.74967C14.0833 7.4071 13.9692 7.07856 13.766 6.83633C13.5629 6.59409 13.2873 6.45801 13 6.45801H7.58333C7.29602 6.45801 7.02047 6.59409 6.8173 6.83633C6.61414 7.07856 6.5 7.4071 6.5 7.74967C6.5 8.09225 6.61414 8.42079 6.8173 8.66302C7.02047 8.90526 7.29602 9.04134 7.58333 9.04134Z" fill="black"/>
    <path d="M18.4167 11.625H7.58333C7.29602 11.625 7.02047 11.7611 6.8173 12.0033C6.61414 12.2456 6.5 12.5741 6.5 12.9167C6.5 13.2592 6.61414 13.5878 6.8173 13.83C7.02047 14.0722 7.29602 14.2083 7.58333 14.2083H18.4167C18.704 14.2083 18.9795 14.0722 19.1827 13.83C19.3859 13.5878 19.5 13.2592 19.5 12.9167C19.5 12.5741 19.3859 12.2456 19.1827 12.0033C18.9795 11.7611 18.704 11.625 18.4167 11.625Z" fill="black"/>
    <path d="M18.4167 16.792H7.58333C7.29602 16.792 7.02047 16.9281 6.8173 17.1703C6.61414 17.4125 6.5 17.7411 6.5 18.0837C6.5 18.4262 6.61414 18.7548 6.8173 18.997C7.02047 19.2392 7.29602 19.3753 7.58333 19.3753H18.4167C18.704 19.3753 18.9795 19.2392 19.1827 18.997C19.3859 18.7548 19.5 18.4262 19.5 18.0837C19.5 17.7411 19.3859 17.4125 19.1827 17.1703C18.9795 16.9281 18.704 16.792 18.4167 16.792Z" fill="black"/>
  </g>
  <defs>
    <clipPath id="clip0_377_5408">
      <rect width="26" height="31" fill="white"/>
    </clipPath>
  </defs>
</svg>