<svg xmlns="http://www.w3.org/2000/svg" width="25" height="24" viewBox="0 0 25 24" fill="none">
  <path fill-rule="evenodd" clip-rule="evenodd" d="M13.1755 1.91006C14.4358 0.670595 16.1238 -0.0152459 17.8759 0.000257222C19.628 0.0157604 21.304 0.731367 22.543 1.99295C23.782 3.25453 24.4848 4.96115 24.5 6.74523C24.5152 8.52931 23.8417 10.2481 22.6244 11.5314L22.6109 11.5455L19.2698 14.9475C18.5923 15.6376 17.7771 16.1712 16.8793 16.5122C15.9815 16.8532 15.0221 16.9937 14.0664 16.924C13.1106 16.8543 12.1807 16.5761 11.3398 16.1083C10.4989 15.6404 9.76662 14.994 9.19267 14.2126C8.82423 13.7111 8.92485 13.0004 9.4174 12.6253C9.90995 12.2501 10.6079 12.3526 10.9764 12.8541C11.359 13.375 11.8472 13.806 12.4078 14.1178C12.9684 14.4297 13.5883 14.6152 14.2255 14.6616C14.8627 14.7081 15.5022 14.6145 16.1008 14.3871C16.6993 14.1598 17.2428 13.804 17.6944 13.344L17.6946 13.3439L21.0286 9.94903C21.8361 9.09421 22.2827 7.95123 22.2726 6.76494C22.2625 5.57555 21.7939 4.43781 20.968 3.59675C20.142 2.7557 19.0246 2.27863 17.8565 2.26829C16.691 2.25798 15.568 2.7132 14.7284 3.53611L12.8188 5.46926C12.3826 5.91084 11.6774 5.90875 11.2437 5.46458C10.8101 5.02041 10.8121 4.30237 11.2483 3.86079L13.164 1.92154L13.1755 1.91006Z" fill="#767676"/>
  <path fill-rule="evenodd" clip-rule="evenodd" d="M8.121 7.48771C9.01879 7.1467 9.97812 7.00628 10.9339 7.07598C11.8897 7.14568 12.8196 7.42387 13.6605 7.89168C14.5014 8.35949 15.2336 9.00597 15.8076 9.78729C16.176 10.2888 16.0754 10.9995 15.5829 11.3747C15.0903 11.7498 14.3923 11.6474 14.0239 11.1458C13.6413 10.625 13.1531 10.194 12.5925 9.8821C12.0319 9.57023 11.412 9.38477 10.7748 9.3383C10.1376 9.29184 9.49804 9.38545 8.89951 9.61279C8.30098 9.84014 7.75746 10.1959 7.30583 10.6559L3.97169 14.0509C3.16419 14.9057 2.71752 16.0487 2.72765 17.235C2.7378 18.4244 3.20632 19.5621 4.03231 20.4032C4.85829 21.2442 5.97565 21.7213 7.14373 21.7316C8.30875 21.742 9.43125 21.2871 10.2708 20.4649L12.168 18.533C12.603 18.0901 13.3082 18.0901 13.7431 18.533C14.178 18.9759 14.178 19.6939 13.7431 20.1368L11.8386 22.0761L11.8248 22.0899C10.5645 23.3293 8.87648 24.0152 7.12437 23.9997C5.37226 23.9842 3.69622 23.2686 2.45724 22.007C1.21826 20.7454 0.515478 19.0388 0.500253 17.2547C0.485027 15.4706 1.15858 13.7518 2.37584 12.4685L2.38941 12.4545L5.73048 9.05242C5.73043 9.05247 5.73053 9.05237 5.73048 9.05242C6.4079 8.36243 7.22326 7.8287 8.121 7.48771Z" fill="#767676"/>
</svg>