<svg xmlns="http://www.w3.org/2000/svg" width="97" height="17" viewBox="0 0 97 17" fill="none">
  <path d="M91.9795 5.17553C92.0275 4.93553 92.0515 4.60753 92.0515 4.19153C92.0515 3.95153 92.0355 3.71953 92.0035 3.49553C91.9715 3.25553 91.9155 3.04753 91.8355 2.87153C91.7555 2.67953 91.6355 2.53553 91.4755 2.43953C91.3155 2.32753 91.1075 2.27153 90.8515 2.27153C90.5635 2.27153 90.2995 2.33553 90.0595 2.46353C89.8195 2.59153 89.6035 2.75953 89.4115 2.96753C89.2355 3.15953 89.0915 3.39153 88.9795 3.66353C88.8835 3.91953 88.8355 4.19153 88.8355 4.47953C88.8355 4.89553 88.9395 5.21553 89.1475 5.43953C89.3715 5.66353 89.6595 5.84753 90.0115 5.99153C90.3635 6.13553 90.7635 6.25553 91.2115 6.35153C91.6595 6.44753 92.1235 6.55953 92.6035 6.68753C93.0035 6.79953 93.4035 6.94353 93.8035 7.11953C94.2035 7.29553 94.5555 7.53553 94.8595 7.83953C95.1795 8.12753 95.4355 8.51153 95.6275 8.99153C95.8195 9.45553 95.9155 10.0395 95.9155 10.7435C95.9155 11.7515 95.7155 12.5995 95.3155 13.2875C94.9155 13.9755 94.3635 14.5355 93.6595 14.9675C92.9555 15.3995 92.1155 15.7115 91.1395 15.9035C90.1795 16.0955 89.1315 16.1915 87.9955 16.1915C86.8435 16.1915 85.8995 16.1195 85.1635 15.9755C84.4435 15.8155 83.8755 15.6475 83.4595 15.4715C82.9635 15.2635 82.5955 15.0235 82.3555 14.7515L83.1715 11.4635H87.3955C87.3795 11.6075 87.3635 11.8075 87.3475 12.0635C87.3315 12.3035 87.3235 12.4955 87.3235 12.6395C87.3235 12.8315 87.3475 13.0315 87.3955 13.2395C87.4435 13.4475 87.5155 13.6395 87.6115 13.8155C87.7235 13.9915 87.8755 14.1355 88.0675 14.2475C88.2595 14.3595 88.4995 14.4155 88.7875 14.4155C89.1075 14.4155 89.3875 14.3435 89.6275 14.1995C89.8835 14.0555 90.0915 13.8795 90.2515 13.6715C90.4275 13.4475 90.5555 13.2075 90.6355 12.9515C90.7315 12.6795 90.7795 12.4155 90.7795 12.1595C90.7795 11.8075 90.6915 11.5115 90.5155 11.2715C90.3555 11.0315 90.1315 10.8315 89.8435 10.6715C89.5555 10.4955 89.2195 10.3515 88.8355 10.2395C88.4675 10.1115 88.0835 9.98353 87.6835 9.85553C87.2995 9.74353 86.8915 9.60753 86.4595 9.44753C86.0435 9.28753 85.6595 9.06353 85.3075 8.77553C84.9555 8.48753 84.6595 8.12753 84.4195 7.69553C84.1955 7.24753 84.0835 6.67953 84.0835 5.99153C84.0835 4.96753 84.3395 4.11153 84.8515 3.42353C85.3795 2.71953 86.0355 2.15153 86.8195 1.71953C87.6195 1.28753 88.4915 0.983531 89.4355 0.807532C90.3795 0.615531 91.2755 0.519531 92.1235 0.519531C93.2435 0.519531 94.2035 0.655531 95.0035 0.927532C95.8195 1.18353 96.4355 1.48753 96.8515 1.83953L95.9635 5.17553H91.9795Z" fill="#363636"/>
  <path d="M75.9586 0.519531C77.3346 0.519531 78.4466 0.695531 79.2946 1.04753C80.1586 1.39953 80.8386 1.94353 81.3346 2.67953C81.6546 3.17553 81.9026 3.73553 82.0786 4.35953C82.2546 4.98353 82.3426 5.70353 82.3426 6.51953C82.3426 7.22353 82.2786 7.92753 82.1506 8.63153C82.0226 9.33553 81.8386 10.0155 81.5986 10.6715C81.3746 11.3115 81.0946 11.9195 80.7586 12.4955C80.4386 13.0555 80.0786 13.5515 79.6786 13.9835C78.9266 14.7995 78.0546 15.3755 77.0626 15.7115C76.0866 16.0315 74.8786 16.1915 73.4386 16.1915C72.0466 16.1915 70.9266 16.0475 70.0786 15.7595C69.2306 15.4715 68.5586 15.0075 68.0626 14.3675C67.7106 13.9195 67.4306 13.3515 67.2226 12.6635C67.0306 11.9755 66.9346 11.1115 66.9346 10.0715C66.9346 8.29553 67.2466 6.71153 67.8706 5.31953C68.5106 3.91153 69.4146 2.79953 70.5826 1.98353C71.2866 1.48753 72.0706 1.11953 72.9346 0.879531C73.7986 0.639531 74.8066 0.519531 75.9586 0.519531ZM73.2466 14.5115C73.6146 14.5115 73.9586 14.3515 74.2786 14.0315C74.6146 13.6955 74.9186 13.2555 75.1906 12.7115C75.4786 12.1515 75.7346 11.5195 75.9586 10.8155C76.1986 10.1115 76.3986 9.38353 76.5586 8.63153C76.7186 7.87953 76.8386 7.13553 76.9186 6.39953C77.0146 5.64753 77.0626 4.96753 77.0626 4.35953C77.0626 3.52753 76.9746 2.95953 76.7986 2.65553C76.6386 2.33553 76.3986 2.17553 76.0786 2.17553C75.7106 2.17553 75.3586 2.33553 75.0226 2.65553C74.6866 2.97553 74.3666 3.40753 74.0626 3.95153C73.7746 4.47953 73.5106 5.09553 73.2706 5.79953C73.0466 6.48753 72.8466 7.19953 72.6706 7.93553C72.5106 8.67153 72.3826 9.39953 72.2866 10.1195C72.2066 10.8395 72.1666 11.5035 72.1666 12.1115C72.1666 13.0235 72.2626 13.6555 72.4546 14.0075C72.6626 14.3435 72.9266 14.5115 73.2466 14.5115Z" fill="#363636"/>
  <path d="M63.4598 15.9998H58.1318L60.3398 5.63177L54.6517 15.9998H51.3877L50.3078 5.27177L48.0037 15.9998H45.8438L49.0838 0.759766H55.2038L55.9478 9.35177L60.5558 0.759766H66.7238L63.4598 15.9998Z" fill="#363636"/>
  <path d="M41.2138 5.17553C41.2618 4.93553 41.2858 4.60753 41.2858 4.19153C41.2858 3.95153 41.2698 3.71953 41.2378 3.49553C41.2058 3.25553 41.1498 3.04753 41.0698 2.87153C40.9898 2.67953 40.8698 2.53553 40.7098 2.43953C40.5498 2.32753 40.3418 2.27153 40.0858 2.27153C39.7978 2.27153 39.5338 2.33553 39.2938 2.46353C39.0538 2.59153 38.8378 2.75953 38.6458 2.96753C38.4698 3.15953 38.3258 3.39153 38.2138 3.66353C38.1178 3.91953 38.0698 4.19153 38.0698 4.47953C38.0698 4.89553 38.1738 5.21553 38.3818 5.43953C38.6058 5.66353 38.8938 5.84753 39.2458 5.99153C39.5978 6.13553 39.9978 6.25553 40.4458 6.35153C40.8938 6.44753 41.3578 6.55953 41.8378 6.68753C42.2378 6.79953 42.6378 6.94353 43.0378 7.11953C43.4378 7.29553 43.7898 7.53553 44.0938 7.83953C44.4138 8.12753 44.6698 8.51153 44.8618 8.99153C45.0538 9.45553 45.1498 10.0395 45.1498 10.7435C45.1498 11.7515 44.9498 12.5995 44.5498 13.2875C44.1498 13.9755 43.5978 14.5355 42.8938 14.9675C42.1898 15.3995 41.3498 15.7115 40.3738 15.9035C39.4138 16.0955 38.3658 16.1915 37.2298 16.1915C36.0778 16.1915 35.1338 16.1195 34.3978 15.9755C33.6778 15.8155 33.1098 15.6475 32.6938 15.4715C32.1978 15.2635 31.8298 15.0235 31.5898 14.7515L32.4058 11.4635H36.6298C36.6138 11.6075 36.5978 11.8075 36.5818 12.0635C36.5658 12.3035 36.5578 12.4955 36.5578 12.6395C36.5578 12.8315 36.5818 13.0315 36.6298 13.2395C36.6778 13.4475 36.7498 13.6395 36.8458 13.8155C36.9578 13.9915 37.1098 14.1355 37.3018 14.2475C37.4938 14.3595 37.7338 14.4155 38.0218 14.4155C38.3418 14.4155 38.6218 14.3435 38.8618 14.1995C39.1178 14.0555 39.3258 13.8795 39.4858 13.6715C39.6618 13.4475 39.7898 13.2075 39.8698 12.9515C39.9658 12.6795 40.0138 12.4155 40.0138 12.1595C40.0138 11.8075 39.9258 11.5115 39.7498 11.2715C39.5898 11.0315 39.3658 10.8315 39.0778 10.6715C38.7898 10.4955 38.4538 10.3515 38.0698 10.2395C37.7018 10.1115 37.3178 9.98353 36.9178 9.85553C36.5338 9.74353 36.1258 9.60753 35.6938 9.44753C35.2778 9.28753 34.8938 9.06353 34.5418 8.77553C34.1898 8.48753 33.8938 8.12753 33.6538 7.69553C33.4298 7.24753 33.3178 6.67953 33.3178 5.99153C33.3178 4.96753 33.5738 4.11153 34.0858 3.42353C34.6138 2.71953 35.2698 2.15153 36.0538 1.71953C36.8538 1.28753 37.7258 0.983531 38.6698 0.807532C39.6138 0.615531 40.5098 0.519531 41.3578 0.519531C42.4778 0.519531 43.4378 0.655531 44.2378 0.927532C45.0538 1.18353 45.6698 1.48753 46.0858 1.83953L45.1978 5.17553H41.2138Z" fill="#363636"/>
  <path d="M25.1929 0.519531C26.5689 0.519531 27.6809 0.695531 28.5289 1.04753C29.3929 1.39953 30.0729 1.94353 30.5689 2.67953C30.8889 3.17553 31.1369 3.73553 31.3129 4.35953C31.4889 4.98353 31.5769 5.70353 31.5769 6.51953C31.5769 7.22353 31.5129 7.92753 31.3849 8.63153C31.2569 9.33553 31.0729 10.0155 30.8329 10.6715C30.6089 11.3115 30.3289 11.9195 29.9929 12.4955C29.6729 13.0555 29.3129 13.5515 28.9129 13.9835C28.1609 14.7995 27.2889 15.3755 26.2969 15.7115C25.3209 16.0315 24.1129 16.1915 22.6729 16.1915C21.2809 16.1915 20.1609 16.0475 19.3129 15.7595C18.4649 15.4715 17.7929 15.0075 17.2969 14.3675C16.9449 13.9195 16.6649 13.3515 16.4569 12.6635C16.2649 11.9755 16.1689 11.1115 16.1689 10.0715C16.1689 8.29553 16.4809 6.71153 17.1049 5.31953C17.7449 3.91153 18.6489 2.79953 19.8169 1.98353C20.5209 1.48753 21.3049 1.11953 22.1689 0.879531C23.0329 0.639531 24.0409 0.519531 25.1929 0.519531ZM22.4809 14.5115C22.8489 14.5115 23.1929 14.3515 23.5129 14.0315C23.8489 13.6955 24.1529 13.2555 24.4249 12.7115C24.7129 12.1515 24.9689 11.5195 25.1929 10.8155C25.4329 10.1115 25.6329 9.38353 25.7929 8.63153C25.9529 7.87953 26.0729 7.13553 26.1529 6.39953C26.2489 5.64753 26.2969 4.96753 26.2969 4.35953C26.2969 3.52753 26.2089 2.95953 26.0329 2.65553C25.8729 2.33553 25.6329 2.17553 25.3129 2.17553C24.9449 2.17553 24.5929 2.33553 24.2569 2.65553C23.9209 2.97553 23.6009 3.40753 23.2969 3.95153C23.0089 4.47953 22.7449 5.09553 22.5049 5.79953C22.2809 6.48753 22.0809 7.19953 21.9049 7.93553C21.7449 8.67153 21.6169 9.39953 21.5209 10.1195C21.4409 10.8395 21.4009 11.5035 21.4009 12.1115C21.4009 13.0235 21.4969 13.6555 21.6889 14.0075C21.8969 14.3435 22.1609 14.5115 22.4809 14.5115Z" fill="#363636"/>
  <path d="M13.5364 14.7035C13.1364 14.8955 12.7204 15.0875 12.2884 15.2795C11.8724 15.4555 11.4244 15.6155 10.9444 15.7595C10.4644 15.8875 9.93641 15.9915 9.36041 16.0715C8.80041 16.1515 8.18441 16.1915 7.51241 16.1915C5.36841 16.1915 3.71241 15.7115 2.54441 14.7515C1.39241 13.7915 0.816406 12.1915 0.816406 9.95153C0.816406 8.65553 1.01641 7.43953 1.41641 6.30353C1.81641 5.15153 2.40841 4.15153 3.19241 3.30353C3.97641 2.43953 4.94441 1.75953 6.09641 1.26353C7.24841 0.767532 8.56841 0.519531 10.0564 0.519531C10.7604 0.519531 11.4004 0.567531 11.9764 0.663531C12.5684 0.759531 13.0964 0.887532 13.5604 1.04753C14.0404 1.19153 14.4644 1.35153 14.8324 1.52753C15.2164 1.70353 15.5604 1.87153 15.8644 2.03153L15.0004 6.49553H10.6804C10.6964 6.33553 10.7124 6.12753 10.7284 5.87153C10.7604 5.61553 10.7844 5.35953 10.8004 5.10353C10.8164 4.83153 10.8324 4.56753 10.8484 4.31153C10.8644 4.05553 10.8724 3.83953 10.8724 3.66353C10.8724 3.53553 10.8644 3.39153 10.8484 3.23153C10.8324 3.05553 10.7924 2.88753 10.7284 2.72753C10.6644 2.56753 10.5604 2.43953 10.4164 2.34353C10.2884 2.23153 10.1124 2.17553 9.88841 2.17553C9.47241 2.17553 9.08841 2.35153 8.73641 2.70353C8.40041 3.03953 8.09641 3.49553 7.82441 4.07153C7.55241 4.63153 7.31241 5.27153 7.10441 5.99153C6.89641 6.71153 6.72041 7.44753 6.57641 8.19953C6.44841 8.93553 6.34441 9.66353 6.26441 10.3835C6.20041 11.1035 6.16841 11.7355 6.16841 12.2795C6.16841 12.4395 6.17641 12.6395 6.19241 12.8795C6.20841 13.1195 6.25641 13.3515 6.33641 13.5755C6.41641 13.7995 6.53641 13.9915 6.69641 14.1515C6.87241 14.3115 7.10441 14.3915 7.39241 14.3915C7.88841 14.3915 8.36841 14.0875 8.83241 13.4795C9.29641 12.8555 9.70441 11.7515 10.0564 10.1675H14.4964L13.5364 14.7035Z" fill="#363636"/>
</svg>