<svg xmlns="http://www.w3.org/2000/svg" width="32" height="32" viewBox="0 0 32 32" fill="none">
<circle cx="16" cy="16" r="16" fill="#9747FF"/>
<path fill-rule="evenodd" clip-rule="evenodd" d="M16.1695 8C16.9656 8 17.6109 8.7314 17.6109 9.63363V22.7027C17.6109 23.6049 16.9656 24.3363 16.1695 24.3363C15.3734 24.3363 14.728 23.6049 14.728 22.7027V9.63363C14.728 8.7314 15.3734 8 16.1695 8Z" fill="#DBDBDB"/>
<path fill-rule="evenodd" clip-rule="evenodd" d="M8 16.168C8 15.3719 8.7314 14.7266 9.63363 14.7266H22.7027C23.6049 14.7266 24.3363 15.3719 24.3363 16.168C24.3363 16.9641 23.6049 17.6094 22.7027 17.6094H9.63363C8.7314 17.6094 8 16.9641 8 16.168Z" fill="#DBDBDB"/>
</svg>