<svg xmlns="http://www.w3.org/2000/svg" width="25" height="24" viewBox="0 0 25 24" fill="none">
  <path fill-rule="evenodd" clip-rule="evenodd" d="M12.5 9.75C11.2574 9.75 10.25 10.7574 10.25 12C10.25 13.2426 11.2574 14.25 12.5 14.25C13.7426 14.25 14.75 13.2426 14.75 12C14.75 10.7574 13.7426 9.75 12.5 9.75ZM8 12C8 9.51472 10.0147 7.5 12.5 7.5C14.9853 7.5 17 9.51472 17 12C17 14.4853 14.9853 16.5 12.5 16.5C10.0147 16.5 8 14.4853 8 12Z" fill="#767676"/>
  <path fill-rule="evenodd" clip-rule="evenodd" d="M12.5 2C12.2348 2 11.9804 2.10536 11.7929 2.29289C11.6054 2.48043 11.5 2.73478 11.5 3V3.17399C11.4979 3.6908 11.3448 4.19572 11.0594 4.62661C10.7741 5.0575 10.369 5.39555 9.89393 5.59914C9.80938 5.63538 9.72042 5.65969 9.62961 5.67157C9.19798 5.82272 8.73333 5.85998 8.281 5.77796C7.76 5.68349 7.27925 5.43512 6.90073 5.06486L6.89285 5.05715L6.83289 4.99711C6.74002 4.90413 6.62934 4.82998 6.50794 4.77965C6.38654 4.72933 6.25642 4.70343 6.125 4.70343C5.99358 4.70343 5.86346 4.72933 5.74206 4.77965C5.62066 4.82998 5.51037 4.90374 5.4175 4.99671L5.41671 4.9975C5.32374 5.09037 5.24998 5.20066 5.19965 5.32206C5.14933 5.44346 5.12343 5.57358 5.12343 5.705C5.12343 5.83642 5.14933 5.96654 5.19965 6.08794C5.24998 6.20934 5.32374 6.31963 5.41671 6.4125L5.48491 6.48069C5.85516 6.85921 6.10349 7.34 6.19796 7.861C6.29055 8.37163 6.23113 8.89797 6.02745 9.37478C5.84189 9.86133 5.51698 10.2827 5.09305 10.5859C4.66054 10.8952 4.14498 11.0673 3.61338 11.0797L3.59 11.08H3.5C3.23478 11.08 2.98043 11.1854 2.79289 11.3729C2.60536 11.5604 2.5 11.8148 2.5 12.08C2.5 12.3452 2.60536 12.5996 2.79289 12.7871C2.98043 12.9746 3.23478 13.08 3.5 13.08H3.67399C4.1908 13.0821 4.69572 13.2352 5.12661 13.5206C5.55601 13.8049 5.8932 14.2082 6.09701 14.6811C6.30908 15.1643 6.37211 15.6998 6.27796 16.219C6.18349 16.74 5.93512 17.2207 5.56486 17.5993L5.55715 17.6072L5.4971 17.6671C5.40413 17.76 5.32998 17.8707 5.27965 17.9921C5.22933 18.1135 5.20343 18.2436 5.20343 18.375C5.20343 18.5064 5.22933 18.6365 5.27965 18.7579C5.32998 18.8793 5.40374 18.9896 5.49671 19.0825L5.4975 19.0833C5.59037 19.1763 5.70066 19.25 5.82206 19.3003C5.94346 19.3507 6.07359 19.3766 6.205 19.3766C6.33641 19.3766 6.46654 19.3507 6.58794 19.3003C6.70934 19.25 6.81963 19.1763 6.9125 19.0833L6.98069 19.0151C7.35921 18.6448 7.84 18.3965 8.361 18.302C8.87163 18.2095 9.39796 18.2689 9.87477 18.4725C10.3613 18.6581 10.7827 18.983 11.0859 19.407C11.3952 19.8395 11.5673 20.355 11.5797 20.8866L11.58 20.91V21C11.58 21.2652 11.6854 21.5196 11.8729 21.7071C12.0604 21.8946 12.3148 22 12.58 22C12.8452 22 13.0996 21.8946 13.2871 21.7071C13.4746 21.5196 13.58 21.2652 13.58 21V20.83L13.58 20.826C13.5821 20.3092 13.7352 19.8043 14.0206 19.3734C14.305 18.944 14.7083 18.6067 15.1812 18.4029C15.6643 18.1909 16.1998 18.1279 16.719 18.222C17.24 18.3165 17.7207 18.5649 18.0993 18.9351L18.1071 18.9429L18.1671 19.0029C18.26 19.0959 18.3707 19.17 18.4921 19.2203C18.6135 19.2707 18.7436 19.2966 18.875 19.2966C19.0064 19.2966 19.1365 19.2707 19.2579 19.2203C19.3793 19.17 19.4896 19.0963 19.5825 19.0033L19.5833 19.0025C19.6763 18.9096 19.75 18.7993 19.8003 18.6779C19.8507 18.5565 19.8766 18.4264 19.8766 18.295C19.8766 18.1636 19.8507 18.0335 19.8003 17.9121C19.75 17.7907 19.6763 17.6804 19.5833 17.5875L19.5151 17.5193C19.1448 17.1408 18.8965 16.66 18.802 16.139C18.7079 15.6198 18.7709 15.0843 18.9829 14.6012C19.1867 14.1283 19.524 13.725 19.9534 13.4406C20.3843 13.1552 20.8892 13.0021 21.406 13L21.41 13L21.5 13C21.7652 13 22.0196 12.8946 22.2071 12.7071C22.3946 12.5196 22.5 12.2652 22.5 12C22.5 11.7348 22.3946 11.4804 22.2071 11.2929C22.0196 11.1054 21.7652 11 21.5 11H21.33L21.326 11C20.8092 10.9979 20.3043 10.8448 19.8734 10.5594C19.4425 10.2741 19.1045 9.86896 18.9009 9.39393C18.8646 9.30938 18.8403 9.22042 18.8284 9.12961C18.6773 8.69798 18.64 8.23332 18.722 7.781C18.8165 7.26 19.0649 6.77925 19.4351 6.40073L19.4428 6.39285L19.5029 6.3329C19.5959 6.24002 19.67 6.12934 19.7203 6.00794C19.7707 5.88654 19.7966 5.75641 19.7966 5.625C19.7966 5.49359 19.7707 5.36346 19.7203 5.24206C19.67 5.12066 19.5963 5.01037 19.5033 4.9175L19.5025 4.91671C19.4096 4.82374 19.2993 4.74998 19.1779 4.69965C19.0565 4.64933 18.9264 4.62343 18.795 4.62343C18.6636 4.62343 18.5335 4.64933 18.4121 4.69965C18.2907 4.74998 18.1804 4.82374 18.0875 4.91671L18.0193 4.98491C17.6408 5.35516 17.16 5.60349 16.639 5.69796C16.1198 5.79211 15.5843 5.72908 15.1011 5.51701C14.6282 5.3132 14.2249 4.97601 13.9406 4.54661C13.6552 4.11572 13.5021 3.6108 13.5 3.09399L13.5 3.09V3C13.5 2.73478 13.3946 2.48043 13.2071 2.29289C13.0196 2.10536 12.7652 2 12.5 2ZM10.3787 0.87868C10.9413 0.316071 11.7044 0 12.5 0C13.2956 0 14.0587 0.316071 14.6213 0.87868C15.1839 1.44129 15.5 2.20435 15.5 3V3.0875C15.5008 3.21374 15.5383 3.33704 15.6081 3.44232C15.678 3.54801 15.7774 3.63092 15.8939 3.68086L15.9038 3.68508C16.0226 3.73752 16.1544 3.75322 16.2822 3.73005C16.4086 3.70713 16.5253 3.64728 16.6177 3.55811L16.6725 3.50329C16.9511 3.22436 17.282 3.00308 17.6462 2.85211C18.0104 2.70113 18.4008 2.62343 18.795 2.62343C19.1892 2.62343 19.5796 2.70113 19.9438 2.85211C20.308 3.00308 20.6389 3.22436 20.9175 3.50329C21.1961 3.78174 21.4171 4.11233 21.5679 4.47618C21.7189 4.84037 21.7966 5.23075 21.7966 5.625C21.7966 6.01925 21.7189 6.40963 21.5679 6.77382C21.417 7.13784 21.1959 7.46857 20.9171 7.7471C20.917 7.74724 20.9172 7.74697 20.9171 7.7471L20.8619 7.80231C20.7727 7.89468 20.7129 8.01142 20.69 8.13782C20.6668 8.26561 20.6824 8.39742 20.7349 8.51624C20.7631 8.58027 20.7845 8.64692 20.7988 8.71507C20.8461 8.78479 20.9068 8.84498 20.9777 8.89195C21.083 8.96167 21.2063 8.99921 21.3325 9H21.5C22.2957 9 23.0587 9.31607 23.6213 9.87868C24.1839 10.4413 24.5 11.2043 24.5 12C24.5 12.7957 24.1839 13.5587 23.6213 14.1213C23.0587 14.6839 22.2957 15 21.5 15H21.4125C21.2863 15.0008 21.163 15.0383 21.0577 15.1081C20.952 15.178 20.8691 15.2774 20.8191 15.3939L20.8149 15.4038C20.7625 15.5226 20.7468 15.6544 20.77 15.7822C20.7929 15.9086 20.8527 16.0253 20.9419 16.1177L20.9967 16.1725C20.9966 16.1724 20.9968 16.1726 20.9967 16.1725C21.2755 16.451 21.497 16.7822 21.6479 17.1462C21.7989 17.5104 21.8766 17.9008 21.8766 18.295C21.8766 18.6892 21.7989 19.0796 21.6479 19.4438C21.4969 19.808 21.2756 20.1389 20.9967 20.4175L20.29 19.71L20.9975 20.4167C20.7189 20.6956 20.388 20.9169 20.0238 21.0679C19.6596 21.2189 19.2692 21.2966 18.875 21.2966C18.4808 21.2966 18.0904 21.2189 17.7262 21.0679C17.3622 20.917 17.0314 20.6959 16.7529 20.4171C16.7528 20.417 16.753 20.4172 16.7529 20.4171L16.6977 20.3619C16.6053 20.2727 16.4886 20.2129 16.3622 20.19C16.2344 20.1668 16.1026 20.1824 15.9838 20.2349L15.974 20.2392C15.8574 20.2891 15.758 20.372 15.6881 20.4777C15.6183 20.583 15.5808 20.7063 15.58 20.8325V21C15.58 21.7957 15.2639 22.5587 14.7013 23.1213C14.1387 23.6839 13.3757 24 12.58 24C11.7843 24 11.0213 23.6839 10.4587 23.1213C9.89607 22.5587 9.58 21.7957 9.58 21V20.9244C9.57526 20.7972 9.53327 20.6741 9.45914 20.5704C9.38326 20.4644 9.27723 20.3836 9.15482 20.3385C9.13505 20.3313 9.11551 20.3234 9.09624 20.3149C8.97742 20.2624 8.84561 20.2468 8.71782 20.27C8.59142 20.2929 8.47467 20.3527 8.3823 20.4419L8.3275 20.4967C8.32737 20.4968 8.32763 20.4966 8.3275 20.4967C8.04896 20.7755 7.71784 20.997 7.35382 21.1479C6.98963 21.2989 6.59925 21.3766 6.205 21.3766C5.81075 21.3766 5.42037 21.2989 5.05618 21.1479C4.69233 20.9971 4.36174 20.7761 4.08329 20.4975C3.80436 20.2189 3.58308 19.888 3.43211 19.5238C3.28113 19.1596 3.20343 18.7692 3.20343 18.375C3.20343 17.9808 3.28113 17.5904 3.43211 17.2262C3.58308 16.862 3.80436 16.5311 4.08329 16.2525L4.13811 16.1977C4.22728 16.1053 4.28713 15.9886 4.31005 15.8622C4.33322 15.7344 4.31758 15.6026 4.26514 15.4838L4.26081 15.474C4.21087 15.3574 4.12801 15.258 4.02232 15.1881C3.91704 15.1183 3.79374 15.0808 3.6675 15.08H3.5C2.70435 15.08 1.94129 14.7639 1.37868 14.2013C0.816071 13.6387 0.5 12.8756 0.5 12.08C0.5 11.2844 0.816071 10.5213 1.37868 9.95868C1.94129 9.39607 2.70435 9.08 3.5 9.08H3.57564C3.70283 9.07526 3.82591 9.03327 3.92955 8.95914C4.03564 8.88326 4.11644 8.77723 4.16146 8.65482C4.16874 8.63505 4.17663 8.61551 4.18514 8.59624C4.23758 8.47742 4.25322 8.34561 4.23005 8.21782C4.20713 8.09142 4.14728 7.97468 4.0581 7.88231L4.00329 7.8275C3.72436 7.54888 3.50308 7.21802 3.35211 6.85382C3.20113 6.48963 3.12343 6.09925 3.12343 5.705C3.12343 5.31075 3.20113 4.92037 3.35211 4.55618C3.50301 4.19216 3.72415 3.86143 4.00289 3.58289C4.28143 3.30415 4.61216 3.08301 4.97618 2.93211C5.34037 2.78113 5.73075 2.70343 6.125 2.70343C6.51925 2.70343 6.90963 2.78113 7.27382 2.93211C7.63802 3.08308 7.96888 3.30436 8.2475 3.58329L8.30231 3.6381C8.39468 3.72728 8.51142 3.78713 8.63782 3.81005C8.76561 3.83322 8.89742 3.81758 9.01624 3.76514C9.08027 3.73687 9.14693 3.71549 9.21507 3.70122C9.28479 3.6539 9.34498 3.59323 9.39195 3.52232C9.46167 3.41704 9.49921 3.29374 9.5 3.1675V3C9.5 2.20435 9.81607 1.44129 10.3787 0.87868Z" fill="#767676"/>
</svg>