<svg xmlns="http://www.w3.org/2000/svg" width="22" height="24" viewBox="0 0 22 24" fill="none">
  <path fill-rule="evenodd" clip-rule="evenodd" d="M1.73566 16.0348C2.84699 14.892 4.35427 14.25 5.92593 14.25H15.4074C16.9791 14.25 18.4863 14.892 19.5977 16.0348C20.709 17.1776 21.3333 18.7276 21.3333 20.3438V22.7812C21.3333 23.4543 20.8027 24 20.1481 24C19.4936 24 18.963 23.4543 18.963 22.7812V20.3438C18.963 19.3741 18.5884 18.4441 17.9216 17.7584C17.2548 17.0727 16.3504 16.6875 15.4074 16.6875H5.92593C4.98293 16.6875 4.07856 17.0727 3.41177 17.7584C2.74497 18.4441 2.37037 19.3741 2.37037 20.3438V22.7812C2.37037 23.4543 1.83974 24 1.18519 24C0.530625 24 0 23.4543 0 22.7812V20.3438C0 18.7276 0.624337 17.1776 1.73566 16.0348Z" fill="black"/>
  <path fill-rule="evenodd" clip-rule="evenodd" d="M10.6669 2.4C8.59492 2.4 6.91521 4.01178 6.91521 6C6.91521 7.98823 8.59492 9.6 10.6669 9.6C12.739 9.6 14.4187 7.98823 14.4187 6C14.4187 4.01178 12.739 2.4 10.6669 2.4ZM4.41406 6C4.41406 2.68629 7.21357 0 10.6669 0C14.1203 0 16.9198 2.68629 16.9198 6C16.9198 9.31371 14.1203 12 10.6669 12C7.21357 12 4.41406 9.31371 4.41406 6Z" fill="black"/>
</svg>